<svg width="81" height="81" viewBox="0 0 81 81" fill="none" xmlns="http://www.w3.org/2000/svg">
<rect width="80" height="80" transform="translate(0.5 0.5)" fill="#E1F7E3"/>
<path opacity="0.2" d="M51.75 44.3843L46.0004 50.1338C45.8478 50.2864 45.6583 50.397 45.4502 50.4546C45.2422 50.5122 45.0228 50.515 44.8134 50.4626L35.7576 48.1987C35.5878 48.1562 35.4287 48.0785 35.2908 47.9707L26.75 41.2921L31.8397 31.7168L39.8585 29.3791C40.1449 29.2956 40.4518 29.3173 40.7237 29.4403L46.125 31.8843H42.8928C42.7286 31.8843 42.5661 31.9166 42.4144 31.9794C42.2628 32.0422 42.125 32.1343 42.0089 32.2504L35.8941 38.3651C35.7675 38.4918 35.6695 38.6441 35.6069 38.8119C35.5443 38.9797 35.5185 39.159 35.5312 39.3376C35.5438 39.5163 35.5948 39.6901 35.6805 39.8473C35.7662 40.0046 35.8847 40.1416 36.028 40.249L36.875 40.8843C37.7405 41.5334 38.7931 41.8843 39.875 41.8843C40.9569 41.8843 42.0095 41.5334 42.875 40.8843L44.875 39.3843L51.75 44.3843Z" fill="#23BD33"/>
<path d="M58.1121 39.5287L54.25 41.4598L49.25 31.8845L53.1515 29.9337C53.4446 29.7872 53.7835 29.7616 54.0953 29.8625C54.4071 29.9634 54.6668 30.1827 54.8185 30.4732L58.6611 37.8321C58.738 37.9792 58.7847 38.1402 58.7987 38.3056C58.8126 38.471 58.7935 38.6376 58.7424 38.7955C58.6913 38.9534 58.6092 39.0996 58.501 39.2255C58.3928 39.3514 58.2606 39.4545 58.1121 39.5287V39.5287Z" stroke="#23BD33" stroke-width="2" stroke-linecap="round" stroke-linejoin="round"/>
<path d="M26.75 41.2928L22.8879 39.3617C22.7394 39.2875 22.6072 39.1844 22.499 39.0585C22.3908 38.9326 22.3087 38.7865 22.2576 38.6285C22.2065 38.4706 22.1874 38.304 22.2013 38.1386C22.2153 37.9732 22.262 37.8122 22.3389 37.6651L26.1815 30.3062C26.3332 30.0157 26.5929 29.7964 26.9047 29.6955C27.2165 29.5946 27.5554 29.6202 27.8486 29.7667L31.75 31.7175L26.75 41.2928Z" stroke="#23BD33" stroke-width="2" stroke-linecap="round" stroke-linejoin="round"/>
<path d="M54.25 41.4595L51.75 44.3841L46.0004 50.1337C45.8478 50.2863 45.6583 50.3968 45.4502 50.4545C45.2422 50.5121 45.0228 50.5148 44.8134 50.4625L35.7576 48.1985C35.5878 48.1561 35.4287 48.0784 35.2908 47.9706L26.75 41.292" stroke="#23BD33" stroke-width="2" stroke-linecap="round" stroke-linejoin="round"/>
<path d="M51.7499 44.3848L44.8749 39.3848L42.8749 40.8848C42.0095 41.5339 40.9568 41.8848 39.8749 41.8848C38.7931 41.8848 37.7404 41.5339 36.8749 40.8848L36.028 40.2495C35.8847 40.1421 35.7662 40.0051 35.6805 39.8478C35.5947 39.6906 35.5438 39.5168 35.5311 39.3381C35.5184 39.1595 35.5442 38.9802 35.6069 38.8124C35.6695 38.6446 35.7674 38.4923 35.8941 38.3656L42.0088 32.2509C42.1249 32.1348 42.2627 32.0427 42.4144 31.9799C42.566 31.9171 42.7286 31.8848 42.8927 31.8848H49.2499" stroke="#23BD33" stroke-width="2" stroke-linecap="round" stroke-linejoin="round"/>
<path d="M31.8396 31.7168L39.8584 29.3791C40.1448 29.2956 40.4517 29.3173 40.7235 29.4403L46.1249 31.8843" stroke="#23BD33" stroke-width="2" stroke-linecap="round" stroke-linejoin="round"/>
<path d="M38 53.7596L33.2907 52.5823C33.0996 52.5345 32.9225 52.4423 32.7738 52.313L29.25 49.25" stroke="#23BD33" stroke-width="2" stroke-linecap="round" stroke-linejoin="round"/>
</svg>
