<svg width="80" height="81" viewBox="0 0 80 81" fill="none" xmlns="http://www.w3.org/2000/svg">
<rect width="80" height="80" transform="translate(0 0.5)" fill="#FFF0F0"/>
<path opacity="0.2" d="M53.75 28H26.25C25.9185 28 25.6005 28.1317 25.3661 28.3661C25.1317 28.6005 25 28.9185 25 29.25V51.75C25 52.0815 25.1317 52.3995 25.3661 52.6339C25.6005 52.8683 25.9185 53 26.25 53H53.75C54.0815 53 54.3995 52.8683 54.6339 52.6339C54.8683 52.3995 55 52.0815 55 51.75V29.25C55 28.9185 54.8683 28.6005 54.6339 28.3661C54.3995 28.1317 54.0815 28 53.75 28ZM34.3907 43C33.649 43 32.924 42.7801 32.3073 42.368C31.6906 41.956 31.21 41.3703 30.9261 40.6851C30.6423 39.9998 30.5681 39.2458 30.7128 38.5184C30.8574 37.791 31.2146 37.1228 31.739 36.5983C32.2635 36.0739 32.9317 35.7167 33.6591 35.5721C34.3865 35.4274 35.1405 35.5016 35.8258 35.7855C36.511 36.0693 37.0967 36.5499 37.5087 37.1666C37.9208 37.7833 38.1407 38.5083 38.1407 39.25C38.1407 39.7425 38.0437 40.2301 37.8552 40.6851C37.6668 41.14 37.3906 41.5534 37.0423 41.9017C36.6941 42.2499 36.2807 42.5261 35.8258 42.7146C35.3708 42.903 34.8832 43 34.3907 43Z" fill="#E34444"/>
<path d="M43.75 38H50" stroke="#E34444" stroke-width="2" stroke-linecap="round" stroke-linejoin="round"/>
<path d="M43.75 43H50" stroke="#E34444" stroke-width="2" stroke-linecap="round" stroke-linejoin="round"/>
<path d="M34.3906 43C36.4617 43 38.1406 41.3211 38.1406 39.25C38.1406 37.1789 36.4617 35.5 34.3906 35.5C32.3196 35.5 30.6406 37.1789 30.6406 39.25C30.6406 41.3211 32.3196 43 34.3906 43Z" stroke="#E34444" stroke-width="2" stroke-linecap="round" stroke-linejoin="round"/>
<path d="M29.5482 46.7499C29.8256 45.6766 30.4518 44.7259 31.3283 44.0471C32.2048 43.3684 33.2819 43 34.3905 43C35.4991 43 36.5763 43.3682 37.4528 44.0469C38.3293 44.7256 38.9555 45.6763 39.2331 46.7496" stroke="#E34444" stroke-width="2" stroke-linecap="round" stroke-linejoin="round"/>
<path d="M53.75 28H26.25C25.5596 28 25 28.5596 25 29.25V51.75C25 52.4404 25.5596 53 26.25 53H53.75C54.4404 53 55 52.4404 55 51.75V29.25C55 28.5596 54.4404 28 53.75 28Z" stroke="#E34444" stroke-width="2" stroke-linecap="round" stroke-linejoin="round"/>
</svg>
