<svg width="80" height="81" viewBox="0 0 80 81" fill="none" xmlns="http://www.w3.org/2000/svg">
<rect width="80" height="80" transform="translate(0 0.5)" fill="#FFEEE8"/>
<path opacity="0.2" d="M40 25.5C37.0333 25.5 34.1332 26.3797 31.6665 28.028C29.1997 29.6762 27.2771 32.0189 26.1418 34.7597C25.0065 37.5006 24.7094 40.5166 25.2882 43.4264C25.867 46.3361 27.2956 49.0088 29.3934 51.1066C31.4912 53.2044 34.1639 54.633 37.0737 55.2118C39.9834 55.7906 42.9994 55.4935 45.7403 54.3582C48.4811 53.2229 50.8238 51.3003 52.472 48.8336C54.1203 46.3668 55 43.4667 55 40.5C55 38.5302 54.612 36.5796 53.8582 34.7597C53.1044 32.9399 51.9995 31.2863 50.6066 29.8934C49.2137 28.5005 47.5602 27.3956 45.7403 26.6418C43.9204 25.888 41.9698 25.5 40 25.5ZM37.5 45.5V35.5L45 40.5L37.5 45.5Z" fill="#FF6636"/>
<path d="M40 55.5C48.2843 55.5 55 48.7843 55 40.5C55 32.2157 48.2843 25.5 40 25.5C31.7157 25.5 25 32.2157 25 40.5C25 48.7843 31.7157 55.5 40 55.5Z" stroke="#FF6636" stroke-width="2" stroke-miterlimit="10"/>
<path d="M45 40.5L37.5 35.5V45.5L45 40.5Z" stroke="#FF6636" stroke-width="2" stroke-linecap="round" stroke-linejoin="round"/>
</svg>
