<svg width="20" height="16" viewBox="0 0 20 16" fill="none" xmlns="http://www.w3.org/2000/svg">
<path fill-rule="evenodd" clip-rule="evenodd" d="M13.9902 2H5.99023C4.92937 2 3.91195 2.42143 3.16181 3.17157C2.41166 3.92172 1.99023 4.93913 1.99023 6V14H13.9902C15.0511 14 16.0685 13.5786 16.8187 12.8284C17.5688 12.0783 17.9902 11.0609 17.9902 10V6C17.9902 4.93913 17.5688 3.92172 16.8187 3.17157C16.0685 2.42143 15.0511 2 13.9902 2ZM5.99023 0C4.39894 0 2.87281 0.632141 1.74759 1.75736C0.622375 2.88258 -0.00976562 4.4087 -0.00976562 6V16H13.9902C15.5815 16 17.1077 15.3679 18.2329 14.2426C19.3581 13.1174 19.9902 11.5913 19.9902 10V6C19.9902 4.4087 19.3581 2.88258 18.2329 1.75736C17.1077 0.632141 15.5815 0 13.9902 0H5.99023ZM5.99023 5H13.9902V7H5.99023V5ZM8.99023 9H5.99023V11H8.99023V9Z" fill="#121117"/>
</svg>
