<svg width="16" height="16" viewBox="0 0 16 16" fill="none" xmlns="http://www.w3.org/2000/svg">
<path opacity="0.4" d="M7.99967 14.6666C11.6816 14.6666 14.6663 11.6819 14.6663 7.99998C14.6663 4.31808 11.6816 1.33331 7.99967 1.33331C4.31778 1.33331 1.33301 4.31808 1.33301 7.99998C1.33301 11.6819 4.31778 14.6666 7.99967 14.6666Z" fill="white"/>
<path d="M10.4731 10.62C10.3864 10.62 10.2998 10.6 10.2198 10.5467L8.1531 9.31332C7.63977 9.00665 7.25977 8.33332 7.25977 7.73999V5.00665C7.25977 4.73332 7.48643 4.50665 7.75977 4.50665C8.0331 4.50665 8.25977 4.73332 8.25977 5.00665V7.73999C8.25977 7.97999 8.45977 8.33332 8.66643 8.45332L10.7331 9.68665C10.9731 9.82665 11.0464 10.1333 10.9064 10.3733C10.8064 10.5333 10.6398 10.62 10.4731 10.62Z" fill="white"/>
</svg>
