<svg width="15" height="14" viewBox="0 0 15 14" fill="none" xmlns="http://www.w3.org/2000/svg">
<path fill-rule="evenodd" clip-rule="evenodd" d="M7.50065 12.333C6.08616 12.333 4.72961 11.7711 3.72941 10.7709C2.72922 9.77072 2.16732 8.41416 2.16732 6.99967C2.16732 5.58519 2.72922 4.22863 3.72941 3.22844C4.72961 2.22824 6.08616 1.66634 7.50065 1.66634C8.91514 1.66634 10.2717 2.22824 11.2719 3.22844C12.2721 4.22863 12.834 5.58519 12.834 6.99967C12.834 8.41416 12.2721 9.77072 11.2719 10.7709C10.2717 11.7711 8.91514 12.333 7.50065 12.333ZM0.833984 6.99967C0.833984 3.31767 3.81865 0.333008 7.50065 0.333008C11.1827 0.333008 14.1673 3.31767 14.1673 6.99967C14.1673 10.6817 11.1827 13.6663 7.50065 13.6663C3.81865 13.6663 0.833984 10.6817 0.833984 6.99967ZM8.16732 3.66634C8.16732 3.48953 8.09708 3.31996 7.97206 3.19494C7.84703 3.06991 7.67746 2.99967 7.50065 2.99967C7.32384 2.99967 7.15427 3.06991 7.02925 3.19494C6.90422 3.31996 6.83398 3.48953 6.83398 3.66634V6.99967C6.83398 7.17649 6.90422 7.34606 7.02925 7.47108C7.15427 7.5961 7.32384 7.66634 7.50065 7.66634H9.50065C9.67746 7.66634 9.84703 7.5961 9.97206 7.47108C10.0971 7.34606 10.1673 7.17649 10.1673 6.99967C10.1673 6.82286 10.0971 6.65329 9.97206 6.52827C9.84703 6.40325 9.67746 6.33301 9.50065 6.33301H8.16732V3.66634Z" fill="#121117"/>
</svg>
