<svg width="48" height="48" viewBox="0 0 48 48" fill="none" xmlns="http://www.w3.org/2000/svg">
<rect width="48" height="48" rx="4" fill="#F4F4F8"/>
<path fill-rule="evenodd" clip-rule="evenodd" d="M16 16.667L23 19L30 16.667L32 16V22H30V18.775L24 20.775V33.35L17 31L14 30V16L16 16.667ZM22 30.558V20.775L16 18.775V28.558L22 30.558ZM30 27.5C30 27.8978 29.842 28.2794 29.5607 28.5607C29.2794 28.842 28.8978 29 28.5 29C28.1022 29 27.7206 28.842 27.4393 28.5607C27.158 28.2794 27 27.8978 27 27.5C27 27.1022 27.158 26.7206 27.4393 26.4393C27.7206 26.158 28.1022 26 28.5 26C28.8978 26 29.2794 26.158 29.5607 26.4393C29.842 26.7206 30 27.1022 30 27.5ZM32 27.5C32 28.103 31.848 28.67 31.58 29.165L33.207 30.793L31.793 32.207L30.165 30.579C29.491 30.9435 28.7159 31.0768 27.9589 30.9583C27.2018 30.8398 26.5045 30.4762 25.9741 29.9232C25.4437 29.3701 25.1094 28.6583 25.0225 27.897C24.9357 27.1356 25.1011 26.3668 25.4934 25.7086C25.8857 25.0503 26.4832 24.539 27.1942 24.2531C27.9051 23.9672 28.6903 23.9226 29.4291 24.126C30.1679 24.3294 30.8195 24.7696 31.2839 25.3791C31.7483 25.9886 31.9999 26.7337 32 27.5Z" fill="#121117"/>
</svg>
