<svg width="14" height="14" viewBox="0 0 14 14" fill="none" xmlns="http://www.w3.org/2000/svg">
<path fill-rule="evenodd" clip-rule="evenodd" d="M2.20757 0.793408C2.01897 0.611249 1.76636 0.510455 1.50417 0.512733C1.24197 0.515012 0.991159 0.620181 0.805751 0.805589C0.620343 0.990997 0.515174 1.24181 0.512895 1.50401C0.510617 1.7662 0.611412 2.0188 0.79357 2.20741L5.58657 7.00041L0.79357 11.7934C0.698059 11.8857 0.621877 11.996 0.569468 12.118C0.517059 12.24 0.489473 12.3712 0.488319 12.504C0.487165 12.6368 0.512467 12.7685 0.562748 12.8914C0.613028 13.0143 0.687282 13.1259 0.781174 13.2198C0.875067 13.3137 0.986719 13.3879 1.10962 13.4382C1.23251 13.4885 1.36419 13.5138 1.49697 13.5127C1.62975 13.5115 1.76097 13.4839 1.88297 13.4315C2.00498 13.3791 2.11532 13.3029 2.20757 13.2074L7.00057 8.41441L11.7936 13.2074C11.9822 13.3896 12.2348 13.4904 12.497 13.4881C12.7592 13.4858 13.01 13.3806 13.1954 13.1952C13.3808 13.0098 13.486 12.759 13.4882 12.4968C13.4905 12.2346 13.3897 11.982 13.2076 11.7934L8.41457 7.00041L13.2076 2.20741C13.3897 2.0188 13.4905 1.7662 13.4882 1.50401C13.486 1.24181 13.3808 0.990997 13.1954 0.805589C13.01 0.620181 12.7592 0.515012 12.497 0.512733C12.2348 0.510455 11.9822 0.611249 11.7936 0.793408L7.00057 5.58641L2.20757 0.793408Z" fill="#121117"/>
</svg>
