<svg width="149" height="150" viewBox="0 0 149 150" fill="none" xmlns="http://www.w3.org/2000/svg">
<g clip-path="url(#clip0_2_2427)">
<g clip-path="url(#clip1_2_2427)">
<g clip-path="url(#clip2_2_2427)">
<mask id="mask0_2_2427" style="mask-type:luminance" maskUnits="userSpaceOnUse" x="0" y="0" width="149" height="150">
<path d="M148.41 0.589844H0V150H148.41V0.589844Z" fill="white"/>
</mask>
<g mask="url(#mask0_2_2427)">
<path d="M0.707031 1.29688L6.70703 7.29688" stroke="#8E66FF" stroke-width="1.99995" stroke-linecap="round"/>
<path d="M23.7064 1.29688L29.7064 7.29688" stroke="#8E66FF" stroke-width="1.99995" stroke-linecap="round"/>
<path d="M46.7057 1.29688L52.7057 7.29688" stroke="#8E66FF" stroke-width="1.99995" stroke-linecap="round"/>
<path d="M69.7051 1.29688L75.7051 7.29688" stroke="#8E66FF" stroke-width="1.99995" stroke-linecap="round"/>
<path d="M92.7045 1.29688L98.7045 7.29688" stroke="#8E66FF" stroke-width="1.99995" stroke-linecap="round"/>
<path d="M115.704 1.29688L121.704 7.29688" stroke="#8E66FF" stroke-width="1.99995" stroke-linecap="round"/>
<path d="M138.703 1.29688L144.703 7.29688" stroke="#8E66FF" stroke-width="1.99995" stroke-linecap="round"/>
<path d="M0.707031 24.2964L6.70703 30.2964" stroke="#8E66FF" stroke-width="1.99995" stroke-linecap="round"/>
<path d="M23.7064 24.2964L29.7064 30.2964" stroke="#8E66FF" stroke-width="1.99995" stroke-linecap="round"/>
<path d="M46.7057 24.2964L52.7057 30.2964" stroke="#8E66FF" stroke-width="1.99995" stroke-linecap="round"/>
<path d="M69.7051 24.2964L75.7051 30.2964" stroke="#8E66FF" stroke-width="1.99995" stroke-linecap="round"/>
<path d="M92.7045 24.2964L98.7045 30.2964" stroke="#8E66FF" stroke-width="1.99995" stroke-linecap="round"/>
<path d="M115.704 24.2964L121.704 30.2964" stroke="#8E66FF" stroke-width="1.99995" stroke-linecap="round"/>
<path d="M138.703 24.2964L144.703 30.2964" stroke="#8E66FF" stroke-width="1.99995" stroke-linecap="round"/>
<path d="M0.707031 47.2954L6.70703 53.2954" stroke="#8E66FF" stroke-width="1.99995" stroke-linecap="round"/>
<path d="M23.7064 47.2954L29.7064 53.2954" stroke="#8E66FF" stroke-width="1.99995" stroke-linecap="round"/>
<path d="M46.7057 47.2954L52.7057 53.2954" stroke="#8E66FF" stroke-width="1.99995" stroke-linecap="round"/>
<path d="M69.7051 47.2954L75.7051 53.2954" stroke="#8E66FF" stroke-width="1.99995" stroke-linecap="round"/>
<path d="M92.7045 47.2954L98.7045 53.2954" stroke="#8E66FF" stroke-width="1.99995" stroke-linecap="round"/>
<path d="M115.704 47.2954L121.704 53.2954" stroke="#8E66FF" stroke-width="1.99995" stroke-linecap="round"/>
<path d="M138.703 47.2954L144.703 53.2954" stroke="#8E66FF" stroke-width="1.99995" stroke-linecap="round"/>
<path d="M0.707031 70.2949L6.70703 76.2949" stroke="#8E66FF" stroke-width="1.99995" stroke-linecap="round"/>
<path d="M23.7064 70.2949L29.7064 76.2949" stroke="#8E66FF" stroke-width="1.99995" stroke-linecap="round"/>
<path d="M46.7057 70.2949L52.7057 76.2949" stroke="#8E66FF" stroke-width="1.99995" stroke-linecap="round"/>
<path d="M69.7051 70.2949L75.7051 76.2949" stroke="#8E66FF" stroke-width="1.99995" stroke-linecap="round"/>
<path d="M92.7045 70.2949L98.7045 76.2949" stroke="#8E66FF" stroke-width="1.99995" stroke-linecap="round"/>
<path d="M115.704 70.2949L121.704 76.2949" stroke="#8E66FF" stroke-width="1.99995" stroke-linecap="round"/>
<path d="M138.703 70.2949L144.703 76.2949" stroke="#8E66FF" stroke-width="1.99995" stroke-linecap="round"/>
<path d="M0.707031 93.2944L6.70703 99.2944" stroke="#8E66FF" stroke-width="1.99995" stroke-linecap="round"/>
<path d="M23.7064 93.2944L29.7064 99.2944" stroke="#8E66FF" stroke-width="1.99995" stroke-linecap="round"/>
<path d="M46.7057 93.2944L52.7057 99.2944" stroke="#8E66FF" stroke-width="1.99995" stroke-linecap="round"/>
<path d="M69.7051 93.2944L75.7051 99.2944" stroke="#8E66FF" stroke-width="1.99995" stroke-linecap="round"/>
<path d="M92.7045 93.2944L98.7045 99.2944" stroke="#8E66FF" stroke-width="1.99995" stroke-linecap="round"/>
<path d="M115.704 93.2944L121.704 99.2944" stroke="#8E66FF" stroke-width="1.99995" stroke-linecap="round"/>
<path d="M138.703 93.2944L144.703 99.2944" stroke="#8E66FF" stroke-width="1.99995" stroke-linecap="round"/>
<path d="M0.707031 116.294L6.70703 122.294" stroke="#8E66FF" stroke-width="1.99995" stroke-linecap="round"/>
<path d="M23.7064 116.294L29.7064 122.294" stroke="#8E66FF" stroke-width="1.99995" stroke-linecap="round"/>
<path d="M46.7057 116.294L52.7057 122.294" stroke="#8E66FF" stroke-width="1.99995" stroke-linecap="round"/>
<path d="M69.7051 116.294L75.7051 122.294" stroke="#8E66FF" stroke-width="1.99995" stroke-linecap="round"/>
<path d="M92.7045 116.294L98.7045 122.294" stroke="#8E66FF" stroke-width="1.99995" stroke-linecap="round"/>
<path d="M115.704 116.294L121.704 122.294" stroke="#8E66FF" stroke-width="1.99995" stroke-linecap="round"/>
<path d="M138.703 116.294L144.703 122.294" stroke="#8E66FF" stroke-width="1.99995" stroke-linecap="round"/>
<path d="M0.707031 139.293L6.70703 145.293" stroke="#8E66FF" stroke-width="1.99995" stroke-linecap="round"/>
<path d="M23.7064 139.293L29.7064 145.293" stroke="#8E66FF" stroke-width="1.99995" stroke-linecap="round"/>
<path d="M46.7057 139.293L52.7057 145.293" stroke="#8E66FF" stroke-width="1.99995" stroke-linecap="round"/>
<path d="M69.7051 139.293L75.7051 145.293" stroke="#8E66FF" stroke-width="1.99995" stroke-linecap="round"/>
<path d="M92.7045 139.293L98.7045 145.293" stroke="#8E66FF" stroke-width="1.99995" stroke-linecap="round"/>
<path d="M115.704 139.293L121.704 145.293" stroke="#8E66FF" stroke-width="1.99995" stroke-linecap="round"/>
<path d="M138.703 139.293L144.703 145.293" stroke="#8E66FF" stroke-width="1.99995" stroke-linecap="round"/>
</g>
</g>
</g>
</g>
<defs>
<clipPath id="clip0_2_2427">
<rect width="148.41" height="149.41" fill="white" transform="translate(0 0.589844)"/>
</clipPath>
<clipPath id="clip1_2_2427">
<rect width="148.41" height="149.41" fill="white" transform="translate(0 0.589844)"/>
</clipPath>
<clipPath id="clip2_2_2427">
<rect width="148.41" height="149.41" fill="white" transform="translate(0 0.589844)"/>
</clipPath>
</defs>
</svg>
