<svg width="124" height="32" viewBox="0 0 124 32" fill="none" xmlns="http://www.w3.org/2000/svg">
<g clip-path="url(#clip0_1_2513)">
<g clip-path="url(#clip1_1_2513)">
<g clip-path="url(#clip2_1_2513)">
<mask id="mask0_1_2513" style="mask-type:luminance" maskUnits="userSpaceOnUse" x="0" y="0" width="124" height="32">
<path d="M123.84 0H0.839996V32H123.84V0Z" fill="white"/>
</mask>
<g mask="url(#mask0_1_2513)">
<g opacity="0.2">
<path d="M5.34 7C6.72071 7 7.84 5.88071 7.84 4.5C7.84 3.11929 6.72071 2 5.34 2C3.95928 2 2.84 3.11929 2.84 4.5C2.84 5.88071 3.95928 7 5.34 7Z" fill="#F14D5D"/>
<path d="M27.34 7C28.7207 7 29.84 5.88071 29.84 4.5C29.84 3.11929 28.7207 2 27.34 2C25.9593 2 24.84 3.11929 24.84 4.5C24.84 5.88071 25.9593 7 27.34 7Z" fill="#F14D5D"/>
<path d="M49.34 7C50.7207 7 51.84 5.88071 51.84 4.5C51.84 3.11929 50.7207 2 49.34 2C47.9593 2 46.84 3.11929 46.84 4.5C46.84 5.88071 47.9593 7 49.34 7Z" fill="#F14D5D"/>
<path d="M71.34 7C72.7207 7 73.84 5.88071 73.84 4.5C73.84 3.11929 72.7207 2 71.34 2C69.9593 2 68.84 3.11929 68.84 4.5C68.84 5.88071 69.9593 7 71.34 7Z" fill="#F14D5D"/>
<path d="M93.34 7C94.7207 7 95.84 5.88071 95.84 4.5C95.84 3.11929 94.7207 2 93.34 2C91.9593 2 90.84 3.11929 90.84 4.5C90.84 5.88071 91.9593 7 93.34 7Z" fill="#F14D5D"/>
<path d="M115.34 7C116.721 7 117.84 5.88071 117.84 4.5C117.84 3.11929 116.721 2 115.34 2C113.959 2 112.84 3.11929 112.84 4.5C112.84 5.88071 113.959 7 115.34 7Z" fill="#F14D5D"/>
<path d="M5.34 29C6.72071 29 7.84 27.8807 7.84 26.5C7.84 25.1193 6.72071 24 5.34 24C3.95928 24 2.84 25.1193 2.84 26.5C2.84 27.8807 3.95928 29 5.34 29Z" fill="#F14D5D"/>
<path d="M27.34 29C28.7207 29 29.84 27.8807 29.84 26.5C29.84 25.1193 28.7207 24 27.34 24C25.9593 24 24.84 25.1193 24.84 26.5C24.84 27.8807 25.9593 29 27.34 29Z" fill="#F14D5D"/>
<path d="M49.34 29C50.7207 29 51.84 27.8807 51.84 26.5C51.84 25.1193 50.7207 24 49.34 24C47.9593 24 46.84 25.1193 46.84 26.5C46.84 27.8807 47.9593 29 49.34 29Z" fill="#F14D5D"/>
<path d="M71.34 29C72.7207 29 73.84 27.8807 73.84 26.5C73.84 25.1193 72.7207 24 71.34 24C69.9593 24 68.84 25.1193 68.84 26.5C68.84 27.8807 69.9593 29 71.34 29Z" fill="#F14D5D"/>
<path d="M93.34 29C94.7207 29 95.84 27.8807 95.84 26.5C95.84 25.1193 94.7207 24 93.34 24C91.9593 24 90.84 25.1193 90.84 26.5C90.84 27.8807 91.9593 29 93.34 29Z" fill="#F14D5D"/>
<path d="M115.34 29C116.721 29 117.84 27.8807 117.84 26.5C117.84 25.1193 116.721 24 115.34 24C113.959 24 112.84 25.1193 112.84 26.5C112.84 27.8807 113.959 29 115.34 29Z" fill="#F14D5D"/>
</g>
</g>
</g>
</g>
</g>
<defs>
<clipPath id="clip0_1_2513">
<rect width="123" height="32" fill="white" transform="translate(0.839996)"/>
</clipPath>
<clipPath id="clip1_1_2513">
<rect width="123" height="32" fill="white" transform="translate(0.839996)"/>
</clipPath>
<clipPath id="clip2_1_2513">
<rect width="123" height="32" fill="white" transform="translate(0.839996)"/>
</clipPath>
</defs>
</svg>
