<svg width="19" height="17" viewBox="0 0 19 17" fill="none" xmlns="http://www.w3.org/2000/svg">
<path fill-rule="evenodd" clip-rule="evenodd" d="M10.4049 1.94002C10.8662 1.48101 11.4142 1.11823 12.0169 0.872734C12.6196 0.627242 13.265 0.503937 13.9158 0.509977C14.5665 0.516018 15.2096 0.651285 15.8076 0.907923C16.4057 1.16456 16.9468 1.53746 17.3995 2.00495C17.8522 2.47245 18.2076 3.02523 18.4449 3.6312C18.6822 4.23717 18.7968 4.88425 18.7819 5.53486C18.7671 6.18547 18.6231 6.82665 18.3584 7.42116C18.0937 8.01567 17.7135 8.55167 17.2399 8.99802L9.50392 16.25L1.76892 8.99802C1.30087 8.55031 0.925969 8.01447 0.665784 7.42133C0.405599 6.82819 0.265265 6.18946 0.252855 5.54188C0.240445 4.8943 0.356205 4.25065 0.593474 3.64798C0.830743 3.04531 1.18484 2.4955 1.63539 2.03018C2.08594 1.56487 2.62405 1.19323 3.21876 0.936657C3.81347 0.680083 4.45305 0.543636 5.10069 0.535164C5.74833 0.526692 6.39126 0.646363 6.99248 0.887293C7.5937 1.12822 8.14135 1.48565 8.60392 1.93902L9.50392 2.83903L10.4049 1.94002ZM15.9389 3.35302C15.6684 3.08247 15.3473 2.86785 14.9938 2.72142C14.6403 2.57499 14.2615 2.49963 13.8789 2.49963C13.4963 2.49963 13.1175 2.57499 12.764 2.72142C12.4106 2.86785 12.0894 3.08247 11.8189 3.35302L9.50392 5.66803L7.18892 3.35302C6.91455 3.08457 6.58983 2.873 6.23342 2.73045C5.87701 2.58791 5.49594 2.51722 5.11212 2.52243C4.7283 2.52764 4.3493 2.60866 3.9969 2.76084C3.64449 2.91301 3.32564 3.13333 3.05866 3.40913C2.79169 3.68494 2.58185 4.01079 2.44122 4.36795C2.30059 4.72512 2.23194 5.10656 2.23921 5.49035C2.24649 5.87413 2.32954 6.2527 2.4836 6.60428C2.63766 6.95586 2.85968 7.27353 3.13692 7.53902L9.50392 13.509L15.8719 7.53902C16.1569 7.27194 16.3852 6.95027 16.5434 6.59315C16.7015 6.23602 16.7863 5.85075 16.7925 5.46022C16.7988 5.0697 16.7264 4.68191 16.5798 4.31991C16.4331 3.95791 16.2152 3.6291 15.9389 3.35302Z" fill="#121117"/>
</svg>
