<svg width="160" height="141" viewBox="0 0 160 141" fill="none" xmlns="http://www.w3.org/2000/svg">
<path fill-rule="evenodd" clip-rule="evenodd" d="M107.676 139.752C112.245 138.015 119.377 134.199 124.537 130.73C130.711 126.58 139.194 118.665 143.418 113.112C151.006 103.138 154.976 92.9939 157.257 77.7456C158.791 67.4921 158.9 64.8888 159.041 35.1276C159.192 3.47574 159.329 5.46248 156.821 2.95472C154.401 0.534414 155.833 0.643198 126.356 0.643195C97.886 0.643192 98.8826 0.585101 96.5306 2.37932C95.9298 2.83729 95.063 3.8509 94.6038 4.63151L93.7694 6.05118L93.6857 33.0185L93.6016 59.9858L94.2694 61.538C95.0534 63.3604 97.2052 65.3913 98.8304 65.8428C99.4966 66.0276 105.049 66.1543 112.543 66.1552L125.136 66.1571L125.136 68.1002C125.136 72.5246 123.874 80.033 122.295 85.0077C120.196 91.6216 116.993 96.9541 112.353 101.56C108.568 105.317 104.185 108.301 98.0229 111.316C93.5173 113.52 92.8414 114.067 91.6034 116.512C91.2756 117.159 91.0571 118.313 91.0463 119.454C91.0308 121.105 91.2366 121.776 92.7586 125.033C98.5504 137.428 99.0241 138.215 101.443 139.449C103.218 140.354 105.765 140.478 107.676 139.752ZM16.2925 139.979C18.0051 139.662 26.058 135.722 30.4187 133.066C43.6482 125.009 53.975 114.214 60.018 102.126C64.4368 93.2866 66.6257 84.3575 68.1671 68.8796C68.5769 64.7664 68.6943 58.6165 68.8049 35.4391C68.9579 3.43989 69.0963 5.46618 66.5849 2.95471C64.1649 0.534715 65.5948 0.64319 36.1358 0.643187C7.42183 0.643185 8.42833 0.580754 6.09331 2.50538C5.48082 3.01033 4.61956 4.14631 4.1792 5.02982L3.37882 6.63615L3.38561 33.3834C3.3924 59.6242 3.40446 60.1573 4.0219 61.5216C4.74534 63.1202 5.84887 64.3653 7.39617 65.3289C8.45274 65.9871 8.78463 66.0062 21.7616 66.157L35.0455 66.3116L34.9512 68.7838C34.7074 75.1692 33.166 82.7685 31.0251 88.137C28.8238 93.6568 26.1875 97.6831 22.1869 101.635C18.5459 105.231 14.8286 107.794 8.99353 110.73C3.39982 113.544 1.83644 114.841 1.20324 117.192C0.453849 119.975 0.848496 121.377 4.53674 129.044C6.59517 133.323 8.42182 136.692 9.12641 137.509C10.9163 139.585 13.5356 140.487 16.2925 139.979Z" fill="white"/>
</svg>
