<svg width="57" height="74" viewBox="0 0 57 74" fill="none" xmlns="http://www.w3.org/2000/svg">
<path d="M1.61621 62.8256L13.8591 62.2284L16.8393 73.8422L31.6186 54.362L24.0071 48.8537L16.3963 43.3454L1.61621 62.8256Z" fill="url(#paint0_linear_1318_2380)"/>
<path d="M2.45502 62.3015L14.2397 61.7267L17.1076 72.9058L31.3337 54.1554L24.0071 48.8537L16.6812 43.5518L2.45502 62.3015Z" fill="url(#paint1_linear_1318_2380)"/>
<path d="M32.6572 49.0114L25.0457 54.5198L39.8258 74L42.8052 62.3862L55.0488 62.9833L40.2687 43.5031L32.6572 49.0114Z" fill="url(#paint2_linear_1318_2380)"/>
<path d="M32.6572 49.0114L25.3314 54.3133L39.5569 73.0637L42.4248 61.8845L54.2101 62.4593L39.9832 43.7096L32.6572 49.0114Z" fill="url(#paint3_linear_1318_2380)"/>
<path d="M28.4391 56.9172C27.3753 56.9172 26.3295 56.6303 25.4144 56.0874L19.2713 52.4452C18.8662 52.205 18.429 52.024 17.9723 51.9068L11.0552 50.136C8.95419 49.598 7.31476 47.9575 6.77718 45.855L5.0071 38.9326C4.89045 38.4761 4.7096 38.0386 4.46907 37.6327L0.829431 31.4859C-0.276477 29.6186 -0.276477 27.2985 0.829431 25.4313L4.46907 19.2844C4.7096 18.8786 4.89045 18.4411 5.0071 17.9846L6.77718 11.0622C7.31476 8.95972 8.95419 7.31917 11.0552 6.78122L17.9723 5.0099C18.429 4.89317 18.8662 4.7122 19.2713 4.47195L25.4144 0.829344C26.3295 0.286867 27.3753 1.52588e-05 28.4391 1.52588e-05C29.5034 1.52588e-05 30.5492 0.286867 31.4648 0.829344L37.6074 4.47195C38.0134 4.7122 38.4502 4.89362 38.9059 5.0099L45.8235 6.78122C47.925 7.31917 49.5644 8.95972 50.102 11.0622L51.8716 17.9846C51.9887 18.4411 52.1696 18.8781 52.4096 19.2844L56.0493 25.4313C57.1552 27.2985 57.1552 29.6186 56.0493 31.4859L52.4096 37.6327C52.1696 38.039 51.9887 38.4761 51.8716 38.9322L50.102 45.855C49.5644 47.9575 47.925 49.598 45.8235 50.136L38.9059 51.9068C38.4502 52.0236 38.0134 52.2045 37.6074 52.4452L31.4648 56.0874C30.5492 56.6303 29.5034 56.9172 28.4391 56.9172Z" fill="url(#paint4_linear_1318_2380)"/>
<path d="M31.2158 1.24918L37.3584 4.89179C37.8033 5.15556 38.2839 5.35463 38.7849 5.48312L45.7024 7.25398C47.6303 7.7476 49.1359 9.25422 49.6292 11.1834L51.3988 18.1053C51.5272 18.6071 51.7262 19.0876 51.9897 19.5328L55.6294 25.6801C56.644 27.3931 56.644 29.5236 55.6294 31.237L51.9897 37.3839C51.7262 37.8295 51.5272 38.31 51.3988 38.8113L49.6292 45.7337C49.1359 47.6629 47.6303 49.1695 45.7024 49.6631L38.7849 51.434C38.2839 51.5625 37.8033 51.7616 37.3584 52.0253L31.2158 55.6675C29.5036 56.6828 27.3745 56.6828 25.6627 55.6675L19.5196 52.0253C19.0747 51.7616 18.5946 51.5625 18.0932 51.434L11.1761 49.6631C9.24773 49.1695 7.74261 47.6629 7.24933 45.7337L5.47923 38.8113C5.35128 38.31 5.15235 37.8295 4.88831 37.3839L1.24867 31.237C0.234091 29.5236 0.234091 27.3931 1.24867 25.6801L4.88831 19.5328C5.15235 19.0876 5.35128 18.6071 5.47923 18.1053L7.24933 11.1834C7.74261 9.25422 9.24773 7.7476 11.1761 7.25398L18.0932 5.48312C18.5946 5.35463 19.0747 5.15556 19.5196 4.89179L25.6627 1.24918C27.3745 0.2339 29.5036 0.2339 31.2158 1.24918Z" fill="url(#paint5_linear_1318_2380)"/>
<path d="M53.1062 28.8486C53.1062 42.4815 42.0625 53.5329 28.4394 53.5329C14.8158 53.5329 3.77213 42.4815 3.77213 28.8486C3.77213 15.2161 14.8158 4.16426 28.4394 4.16426C42.0625 4.16426 53.1062 15.2161 53.1062 28.8486Z" fill="url(#paint6_linear_1318_2380)"/>
<path d="M52.3614 28.8486C52.3614 42.0694 41.6513 52.7872 28.4397 52.7872C15.228 52.7872 4.51754 42.0694 4.51754 28.8486C4.51754 15.6278 15.228 4.90987 28.4397 4.90987C41.6513 4.90987 52.3614 15.6278 52.3614 28.8486Z" fill="url(#paint7_linear_1318_2380)"/>
<path d="M50.3962 28.8485C50.3962 40.9835 40.5656 50.8204 28.4395 50.8204C16.3129 50.8204 6.48274 40.9835 6.48274 28.8485C6.48274 16.714 16.3129 6.8766 28.4395 6.8766C40.5656 6.8766 50.3962 16.714 50.3962 28.8485Z" fill="url(#paint8_linear_1318_2380)"/>
<path d="M48.7124 28.8485C48.7124 40.0528 39.6359 49.1355 28.4398 49.1355C17.2433 49.1355 8.16681 40.0528 8.16681 28.8485C8.16681 17.6442 17.2433 8.56192 28.4398 8.56192C39.6359 8.56192 48.7124 17.6442 48.7124 28.8485Z" fill="url(#paint9_linear_1318_2380)"/>
<path d="M47.065 28.8486C47.065 39.142 38.7259 47.4869 28.4395 47.4869C18.1527 47.4869 9.81407 39.142 9.81407 28.8486C9.81407 18.5551 18.1527 10.2102 28.4395 10.2102C38.7259 10.2102 47.065 18.5551 47.065 28.8486Z" fill="url(#paint10_linear_1318_2380)"/>
<path d="M46.4503 28.8485C46.4503 38.8027 38.3862 46.872 28.4393 46.872C18.4921 46.872 10.4283 38.8027 10.4283 28.8485C10.4283 18.8944 18.4921 10.8251 28.4393 10.8251C38.3862 10.8251 46.4503 18.8944 46.4503 28.8485Z" fill="url(#paint11_linear_1318_2380)"/>
<path d="M45.2233 30.9451C45.2062 31.0854 45.3057 31.2129 45.4454 31.23C45.5856 31.2475 45.713 31.148 45.7305 31.0077C45.7475 30.8674 45.6481 30.7399 45.5084 30.7229C45.3682 30.7053 45.2408 30.8049 45.2233 30.9451ZM44.8373 33.0087C44.8027 33.1456 44.8856 33.285 45.022 33.3196C45.1588 33.3537 45.2981 33.2712 45.3327 33.1343C45.3672 32.9973 45.2843 32.8584 45.1475 32.8238C45.0106 32.7892 44.8718 32.8722 44.8373 33.0087ZM44.1965 35.0096C44.1448 35.1414 44.2097 35.2893 44.3414 35.3409C44.4726 35.3921 44.6208 35.3272 44.672 35.1959C44.7236 35.0646 44.6587 34.9163 44.5275 34.8646C44.3959 34.8134 44.2476 34.8784 44.1965 35.0096ZM43.3113 36.9149C43.244 37.0386 43.29 37.194 43.414 37.2613C43.5377 37.3286 43.693 37.2826 43.7603 37.1585C43.8275 37.0348 43.7816 36.8793 43.658 36.812C43.5339 36.7447 43.3785 36.7912 43.3113 36.9149ZM42.1969 38.695C42.1145 38.8097 42.141 38.9694 42.2556 39.0514C42.3702 39.1339 42.5298 39.1073 42.6122 38.9926C42.6942 38.8779 42.6681 38.7182 42.5535 38.6357C42.4384 38.5538 42.2788 38.5798 42.1969 38.695ZM40.8712 40.3234C40.7756 40.4272 40.7822 40.5888 40.8859 40.6846C40.9896 40.7803 41.1511 40.7737 41.2468 40.6699C41.3425 40.5661 41.3358 40.4045 41.2321 40.3087C41.1284 40.213 40.9669 40.2196 40.8712 40.3234ZM39.3557 41.7761C39.2482 41.8671 39.2344 42.0287 39.3258 42.1362C39.4168 42.2438 39.5778 42.2576 39.6858 42.1661C39.7933 42.0751 39.8066 41.914 39.7156 41.8059C39.6247 41.6983 39.4632 41.6846 39.3557 41.7761ZM37.6729 43.0306C37.555 43.1074 37.5219 43.2661 37.5991 43.3841C37.6763 43.5026 37.8344 43.5358 37.9524 43.4585C38.0708 43.3813 38.1039 43.223 38.0267 43.1045C37.9495 42.9865 37.7913 42.9533 37.6729 43.0306ZM35.8491 44.0666C35.7226 44.1287 35.6696 44.2818 35.7316 44.4083C35.7936 44.5353 35.9466 44.5879 36.0736 44.5259C36.2 44.4642 36.2526 44.3111 36.191 44.1841C36.129 44.0571 35.976 44.0045 35.8491 44.0666ZM33.9096 44.8685C33.7761 44.914 33.705 45.059 33.7505 45.1927C33.7964 45.3263 33.9414 45.3979 34.0749 45.3519C34.2085 45.3064 34.2795 45.1609 34.2341 45.0277C34.1886 44.8941 34.0432 44.8225 33.9096 44.8685ZM31.8859 45.4216C31.7476 45.45 31.6586 45.5856 31.6875 45.7235C31.7159 45.8619 31.8513 45.951 31.9891 45.9221C32.1274 45.8936 32.2165 45.7581 32.1876 45.6202C32.1592 45.4818 32.0237 45.3932 31.8859 45.4216ZM29.8086 45.7188C29.668 45.7297 29.5628 45.8529 29.5742 45.9936C29.5856 46.1344 29.7087 46.2396 29.8494 46.2282C29.99 46.2169 30.0947 46.0936 30.0833 45.9529C30.0724 45.8121 29.9493 45.7074 29.8086 45.7188ZM27.7101 45.7576C27.5689 45.7519 27.4501 45.8614 27.4439 46.0022C27.4377 46.1434 27.5476 46.2624 27.6883 46.2685C27.8294 46.2747 27.9483 46.1652 27.9544 46.024C27.9601 45.8827 27.8507 45.7638 27.7101 45.7576ZM25.6228 45.5396C25.4836 45.5164 25.3519 45.6102 25.3287 45.7496C25.3055 45.8889 25.3993 46.0206 25.5386 46.0439C25.6778 46.0671 25.8095 45.9733 25.8327 45.8339C25.8559 45.6946 25.7621 45.5628 25.6228 45.5396ZM23.5792 45.0642C23.4442 45.0235 23.3017 45.1003 23.2614 45.2358C23.2207 45.3709 23.2974 45.5135 23.4324 45.5538C23.5679 45.5941 23.7099 45.5173 23.7507 45.3823C23.7909 45.2472 23.7142 45.1045 23.5792 45.0642ZM21.6095 44.3367C21.4807 44.2794 21.3296 44.3382 21.2727 44.4671C21.2154 44.596 21.2741 44.7472 21.403 44.8041C21.5323 44.8614 21.6829 44.8026 21.7402 44.6737C21.797 44.5448 21.7388 44.3936 21.6095 44.3367ZM19.7463 43.3694C19.625 43.2964 19.4683 43.3358 19.3958 43.4571C19.3229 43.578 19.3622 43.7348 19.483 43.8078C19.6042 43.8803 19.761 43.841 19.8334 43.7202C19.9064 43.5993 19.867 43.4419 19.7463 43.3694ZM18.0166 42.1784C17.9058 42.0917 17.7453 42.1111 17.6581 42.222C17.5715 42.3334 17.5909 42.4941 17.7017 42.5808C17.813 42.668 17.9736 42.6486 18.0602 42.5372C18.1474 42.4263 18.1279 42.2656 18.0166 42.1784ZM16.4476 40.7836C16.3481 40.6836 16.1866 40.6831 16.0867 40.7827C15.9863 40.8822 15.9863 41.0438 16.0857 41.1443C16.1852 41.2443 16.3467 41.2448 16.4466 41.1452C16.547 41.0457 16.5475 40.8836 16.4476 40.7836ZM15.0623 39.2064C14.9761 39.0945 14.8155 39.0741 14.7042 39.1609C14.5924 39.2471 14.5721 39.4078 14.6588 39.5192C14.7449 39.631 14.9055 39.6514 15.0173 39.5647C15.1286 39.4784 15.1485 39.3177 15.0623 39.2064ZM13.8825 37.4703C13.8105 37.349 13.6538 37.3087 13.5325 37.3808C13.4113 37.4528 13.371 37.6097 13.443 37.731C13.515 37.8528 13.6718 37.8926 13.793 37.8206C13.9142 37.7485 13.9545 37.5917 13.8825 37.4703ZM12.9268 35.6025C12.8704 35.4732 12.7198 35.4139 12.5905 35.4703C12.4612 35.5267 12.402 35.6769 12.4584 35.8068C12.5147 35.9362 12.6653 35.9954 12.7946 35.939C12.9239 35.8826 12.9831 35.7319 12.9268 35.6025ZM12.2107 33.6286C12.1709 33.4935 12.0288 33.4158 11.8934 33.4556C11.7584 33.4954 11.6807 33.6376 11.7205 33.7727C11.7602 33.9082 11.9023 33.9859 12.0373 33.9461C12.1728 33.9063 12.2504 33.7641 12.2107 33.6286ZM11.746 31.5812C11.7233 31.4418 11.5921 31.347 11.4529 31.3698C11.3136 31.3925 11.2189 31.5238 11.2417 31.6632C11.2644 31.8025 11.3956 31.8973 11.5348 31.8745C11.6741 31.8518 11.7683 31.7205 11.746 31.5812ZM11.5386 29.4916C11.5334 29.3503 11.415 29.2404 11.2739 29.2456C11.1327 29.2508 11.0229 29.3698 11.0281 29.5105C11.0333 29.6518 11.1521 29.7617 11.2928 29.7565C11.4339 29.7513 11.5438 29.6328 11.5386 29.4916ZM11.5883 27.392C11.6006 27.2513 11.4965 27.1276 11.3558 27.1157C11.2151 27.1034 11.0915 27.2077 11.0797 27.3484C11.0674 27.4892 11.1716 27.6129 11.3122 27.6247C11.4529 27.637 11.5765 27.5323 11.5883 27.392ZM11.8962 25.3148C11.9251 25.1768 11.837 25.0408 11.6992 25.0114C11.5613 24.9821 11.4254 25.0707 11.3961 25.2086C11.3672 25.3465 11.4552 25.4825 11.5931 25.5119C11.7309 25.5408 11.8668 25.4527 11.8962 25.3148ZM12.4598 23.2906C12.5062 23.1574 12.4356 23.0119 12.3025 22.9654C12.169 22.919 12.0236 22.9896 11.9772 23.1228C11.9307 23.2564 12.0013 23.4019 12.1349 23.4484C12.268 23.4948 12.4134 23.4242 12.4598 23.2906ZM13.2715 21.3536C13.3341 21.227 13.2824 21.0735 13.156 21.0109C13.0295 20.9484 12.8761 21 12.8136 21.1265C12.751 21.2531 12.8032 21.4066 12.9296 21.4692C13.0561 21.5318 13.209 21.4801 13.2715 21.3536ZM14.3178 19.5322C14.3954 19.4142 14.3632 19.2559 14.2453 19.1782C14.1278 19.1 13.9692 19.1327 13.8915 19.2502C13.8138 19.3682 13.846 19.5265 13.964 19.6047C14.0814 19.6825 14.2401 19.6498 14.3178 19.5322ZM15.5809 17.8545C15.6728 17.7474 15.66 17.5858 15.5529 17.4943C15.4459 17.4023 15.2844 17.4151 15.1925 17.5223C15.1011 17.6294 15.1134 17.791 15.2209 17.8829C15.328 17.9744 15.4895 17.9621 15.5809 17.8545ZM17.041 16.3459C17.1452 16.2507 17.1523 16.0891 17.0576 15.9848C16.9624 15.8805 16.8009 15.8729 16.6967 15.9682C16.5925 16.0635 16.5849 16.2251 16.6801 16.3293C16.7753 16.4336 16.9368 16.4407 17.041 16.3459ZM18.675 15.0284C18.7901 14.9469 18.8175 14.7872 18.7361 14.672C18.6542 14.5568 18.495 14.5298 18.3799 14.6113C18.2648 14.6928 18.2374 14.8526 18.3188 14.9677C18.4003 15.0829 18.5599 15.1099 18.675 15.0284ZM20.4586 13.9236C20.5832 13.8568 20.6296 13.7018 20.5628 13.5777C20.4965 13.453 20.3416 13.4066 20.2171 13.4729C20.093 13.5397 20.0461 13.6947 20.1129 13.8194C20.1796 13.9435 20.334 13.9905 20.4586 13.9236ZM22.3644 13.0492C22.4961 12.9985 22.5619 12.8506 22.5112 12.7189C22.4606 12.5871 22.3128 12.5212 22.1811 12.572C22.0495 12.6227 21.9836 12.7705 22.0343 12.9023C22.085 13.0341 22.2332 13.0999 22.3644 13.0492ZM24.3659 12.4189C24.5028 12.3848 24.5866 12.2464 24.5525 12.1094C24.5189 11.972 24.3806 11.8885 24.2432 11.9227C24.1064 11.9563 24.023 12.0947 24.0566 12.2321C24.0907 12.3691 24.229 12.4525 24.3659 12.4189ZM26.4304 12.043C26.5706 12.0265 26.6705 11.899 26.6539 11.7592C26.6373 11.6189 26.5104 11.5184 26.3702 11.535C26.2305 11.5516 26.1301 11.6791 26.1467 11.8189C26.1632 11.9592 26.2902 12.0596 26.4304 12.043ZM28.5256 11.925C28.6667 11.9255 28.7818 11.8118 28.7823 11.6705C28.7833 11.5293 28.6696 11.4146 28.5285 11.4137C28.3873 11.4132 28.2722 11.5269 28.2718 11.6682C28.2708 11.8094 28.385 11.9241 28.5256 11.925ZM30.6199 12.0639C30.7596 12.0819 30.8875 11.9833 30.9055 11.843C30.9235 11.7032 30.825 11.5748 30.6848 11.5568C30.5451 11.5388 30.4172 11.6378 30.3992 11.7781C30.3812 11.9179 30.4797 12.0459 30.6199 12.0639ZM32.6801 12.4611C32.8165 12.4966 32.9562 12.4141 32.9913 12.2776C33.0268 12.1407 32.9444 12.0013 32.808 11.9663C32.6711 11.9307 32.5319 12.0132 32.4968 12.1497C32.4613 12.2867 32.5437 12.426 32.6801 12.4611ZM34.6764 13.1127C34.8071 13.1649 34.9558 13.1004 35.0079 12.9696C35.06 12.8383 34.9961 12.6895 34.8649 12.6374C34.7337 12.5852 34.585 12.6497 34.5329 12.781C34.4808 12.9118 34.5452 13.0606 34.6764 13.1127ZM36.5751 14.008C36.6987 14.0762 36.8541 14.0307 36.9223 13.9071C36.99 13.7834 36.945 13.6279 36.8214 13.5601C36.6978 13.4919 36.5424 13.5374 36.4747 13.6611C36.4065 13.7848 36.4515 13.9402 36.5751 14.008ZM38.3483 15.1322C38.4624 15.2151 38.6225 15.1895 38.7049 15.0753C38.7878 14.9611 38.7622 14.8014 38.6481 14.7184C38.534 14.6355 38.3739 14.6611 38.2915 14.7753C38.2086 14.8895 38.2342 15.0497 38.3483 15.1322ZM39.969 16.4673C40.0723 16.5635 40.2338 16.5578 40.3304 16.4545C40.4265 16.3512 40.4208 16.1895 40.3176 16.0933C40.2143 15.9971 40.0528 16.0028 39.9567 16.1056C39.8601 16.209 39.8658 16.3711 39.969 16.4673ZM41.413 17.991C41.5035 18.0995 41.6645 18.1137 41.773 18.0232C41.881 17.9322 41.8952 17.7711 41.8047 17.663C41.7143 17.555 41.5533 17.5403 41.4448 17.6313C41.3368 17.7218 41.3226 17.8829 41.413 17.991ZM42.6582 19.681C42.7344 19.8 42.8926 19.8337 43.011 19.7573C43.1294 19.6806 43.1635 19.5223 43.0873 19.4038C43.0105 19.2853 42.8524 19.2512 42.7339 19.328C42.6155 19.4043 42.5814 19.5626 42.6582 19.681ZM43.684 21.5119C43.7456 21.6389 43.8981 21.6924 44.025 21.6308C44.1524 21.5697 44.2055 21.4171 44.1444 21.2896C44.0833 21.1626 43.9303 21.109 43.8034 21.1706C43.6764 21.2318 43.6229 21.3844 43.684 21.5119ZM44.4754 23.4564C44.5199 23.5906 44.6649 23.6626 44.7989 23.6176C44.9325 23.5726 45.0045 23.4275 44.9595 23.2939C44.9145 23.1597 44.77 23.0877 44.636 23.1327C44.5024 23.1778 44.4304 23.3228 44.4754 23.4564ZM45.0177 25.4849C45.0457 25.6233 45.1802 25.7129 45.3185 25.6849C45.4568 25.6569 45.5463 25.5223 45.5183 25.3839C45.4908 25.2456 45.3559 25.156 45.2176 25.1835C45.0793 25.2114 44.9898 25.3465 45.0177 25.4849ZM45.3038 27.565C45.3142 27.7058 45.4368 27.8115 45.5775 27.8006C45.7182 27.7901 45.8238 27.6674 45.8134 27.5266C45.803 27.3859 45.6803 27.2802 45.5396 27.2911C45.399 27.3015 45.2934 27.4243 45.3038 27.565ZM45.3516 28.8489C45.3516 28.9901 45.4662 29.1044 45.6073 29.1044C45.7485 29.1044 45.8626 28.9901 45.8626 28.8489C45.8626 28.7077 45.7485 28.5935 45.6073 28.5935C45.4662 28.5935 45.3516 28.7077 45.3516 28.8489Z" fill="url(#paint12_linear_1318_2380)"/>
<path d="M28.8243 17.6214L27.5235 18.2656L27.7496 16.8588L26.7196 15.8498L28.1601 15.6246L28.8243 14.3564L29.4885 15.6246L30.9285 15.8498L29.899 16.8588L30.1246 18.2656L28.8243 17.6214Z" fill="url(#paint13_linear_1318_2380)"/>
<path d="M34.7022 18.5764L33.9897 18.9293L34.1131 18.1583L33.5493 17.6054L34.3383 17.4822L34.7022 16.7876L35.0662 17.4822L35.8552 17.6054L35.2909 18.1583L35.4148 18.9293L34.7022 18.5764Z" fill="url(#paint14_linear_1318_2380)"/>
<path d="M23.1438 18.5764L22.4313 18.9293L22.5552 18.1583L21.9909 17.6054L22.7799 17.4822L23.1438 16.7876L23.5078 17.4822L24.2972 17.6054L23.733 18.1583L23.8568 18.9293L23.1438 18.5764Z" fill="url(#paint15_linear_1318_2380)"/>
<path d="M28.8412 43.0843L27.7615 43.6191L27.9487 42.4511L27.0942 41.6135L28.2896 41.4267L28.8412 40.374L29.3928 41.4267L30.5882 41.6135L29.7337 42.4511L29.9209 43.6191L28.8412 43.0843Z" fill="url(#paint16_linear_1318_2380)"/>
<path d="M34.7022 41.5766L33.9897 41.9294L34.1131 41.1584L33.5493 40.6055L34.3383 40.4824L34.7022 39.7877L35.0662 40.4824L35.8552 40.6055L35.2909 41.1584L35.4148 41.9294L34.7022 41.5766Z" fill="url(#paint17_linear_1318_2380)"/>
<path d="M23.1438 41.5766L22.4313 41.9294L22.5552 41.1584L21.9909 40.6055L22.7799 40.4824L23.1438 39.7877L23.5078 40.4824L24.2972 40.6055L23.733 41.1584L23.8568 41.9294L23.1438 41.5766Z" fill="url(#paint18_linear_1318_2380)"/>
<path d="M20.9402 23.4111C20.7664 23.4111 20.6121 23.4453 20.4773 23.5137C20.3445 23.5801 20.2322 23.6768 20.1404 23.8037C20.0506 23.9307 19.9822 24.084 19.9354 24.2637C19.8885 24.4434 19.865 24.6455 19.865 24.8701C19.865 25.1728 19.9021 25.4316 19.9764 25.6465C20.0525 25.8594 20.1697 26.0225 20.3279 26.1357C20.4861 26.2471 20.6902 26.3027 20.9402 26.3027C21.1141 26.3027 21.2879 26.2832 21.4617 26.2441C21.6375 26.2051 21.8279 26.1494 22.033 26.0771V26.8389C21.8436 26.917 21.657 26.9727 21.4734 27.0059C21.2898 27.041 21.0838 27.0586 20.8553 27.0586C20.4139 27.0586 20.0506 26.9678 19.7654 26.7861C19.4822 26.6025 19.2723 26.3467 19.1355 26.0186C18.9988 25.6885 18.9305 25.3037 18.9305 24.8643C18.9305 24.54 18.9744 24.2432 19.0623 23.9736C19.1502 23.7041 19.2791 23.4707 19.449 23.2734C19.6189 23.0762 19.8289 22.9238 20.0789 22.8164C20.3289 22.709 20.616 22.6553 20.9402 22.6553C21.1531 22.6553 21.366 22.6826 21.5789 22.7373C21.7938 22.79 21.9988 22.8633 22.1941 22.957L21.9012 23.6953C21.741 23.6191 21.5799 23.5527 21.4178 23.4961C21.2557 23.4395 21.0965 23.4111 20.9402 23.4111Z" fill="#323A4D"/>
<path d="M25.6733 25.3564C25.6733 25.6299 25.6362 25.8721 25.562 26.083C25.4897 26.2939 25.3833 26.4727 25.2427 26.6191C25.104 26.7637 24.936 26.873 24.7388 26.9473C24.5434 27.0215 24.3227 27.0586 24.0766 27.0586C23.8462 27.0586 23.6343 27.0215 23.4409 26.9473C23.2495 26.873 23.0825 26.7637 22.9399 26.6191C22.7993 26.4727 22.6899 26.2939 22.6118 26.083C22.5356 25.8721 22.4975 25.6299 22.4975 25.3564C22.4975 24.9932 22.562 24.6855 22.6909 24.4336C22.8198 24.1816 23.0034 23.9902 23.2417 23.8594C23.48 23.7285 23.7641 23.6631 24.0942 23.6631C24.4009 23.6631 24.6723 23.7285 24.9087 23.8594C25.147 23.9902 25.3335 24.1816 25.4682 24.4336C25.605 24.6855 25.6733 24.9932 25.6733 25.3564ZM23.4087 25.3564C23.4087 25.5713 23.4321 25.752 23.479 25.8984C23.5259 26.0449 23.5991 26.1553 23.6987 26.2295C23.7983 26.3037 23.9282 26.3408 24.0884 26.3408C24.2466 26.3408 24.3745 26.3037 24.4721 26.2295C24.5718 26.1553 24.644 26.0449 24.6889 25.8984C24.7358 25.752 24.7593 25.5713 24.7593 25.3564C24.7593 25.1396 24.7358 24.96 24.6889 24.8174C24.644 24.6728 24.5718 24.5645 24.4721 24.4922C24.3725 24.4199 24.2427 24.3838 24.0825 24.3838C23.8462 24.3838 23.6743 24.4648 23.5669 24.627C23.4614 24.7891 23.4087 25.0322 23.4087 25.3564Z" fill="#323A4D"/>
<path d="M29.2375 23.7246V27H28.5519L28.4318 26.5811H28.3849C28.3146 26.6924 28.2267 26.7832 28.1213 26.8535C28.0158 26.9238 27.8996 26.9756 27.7726 27.0088C27.6457 27.042 27.5138 27.0586 27.3771 27.0586C27.1427 27.0586 26.9386 27.0176 26.7648 26.9355C26.591 26.8516 26.4552 26.7217 26.3576 26.5459C26.2619 26.3701 26.214 26.1416 26.214 25.8603V23.7246H27.1076V25.6377C27.1076 25.8721 27.1496 26.0488 27.2336 26.168C27.3175 26.2871 27.4513 26.3467 27.6349 26.3467C27.8166 26.3467 27.9591 26.3057 28.0627 26.2236C28.1662 26.1396 28.2384 26.0176 28.2795 25.8574C28.3224 25.6953 28.3439 25.498 28.3439 25.2656V23.7246H29.2375Z" fill="#323A4D"/>
<path d="M31.8231 23.6631C31.868 23.6631 31.9198 23.666 31.9784 23.6719C32.0389 23.6758 32.0877 23.6816 32.1248 23.6895L32.0575 24.5273C32.0282 24.5176 31.9862 24.5107 31.9315 24.5068C31.8787 24.501 31.8329 24.498 31.7938 24.498C31.6786 24.498 31.5662 24.5127 31.4569 24.542C31.3495 24.5713 31.2528 24.6191 31.1668 24.6855C31.0809 24.75 31.0125 24.8359 30.9618 24.9434C30.9129 25.0488 30.8885 25.1787 30.8885 25.333V27H29.995V23.7246H30.6717L30.8036 24.2754H30.8475C30.912 24.1641 30.992 24.0625 31.0877 23.9707C31.1854 23.877 31.2957 23.8027 31.4188 23.748C31.5438 23.6914 31.6786 23.6631 31.8231 23.6631Z" fill="#323A4D"/>
<path d="M34.8247 26.0273C34.8247 26.25 34.772 26.4385 34.6665 26.5928C34.563 26.7451 34.4077 26.8613 34.2007 26.9414C33.9937 27.0195 33.7359 27.0586 33.4273 27.0586C33.1987 27.0586 33.0025 27.0439 32.8384 27.0146C32.6763 26.9853 32.5122 26.9365 32.3462 26.8682V26.1299C32.5239 26.21 32.7144 26.2764 32.9175 26.3291C33.1226 26.3799 33.3023 26.4053 33.4566 26.4053C33.6304 26.4053 33.7544 26.3799 33.8286 26.3291C33.9048 26.2764 33.9429 26.208 33.9429 26.124C33.9429 26.0693 33.9273 26.0205 33.896 25.9775C33.8667 25.9326 33.8023 25.8828 33.7027 25.8281C33.603 25.7715 33.4468 25.6982 33.2339 25.6084C33.0288 25.5225 32.8599 25.4355 32.7271 25.3477C32.5962 25.2598 32.4986 25.1562 32.4341 25.0371C32.3716 24.916 32.3404 24.7627 32.3404 24.5771C32.3404 24.2744 32.4575 24.0469 32.6919 23.8945C32.9282 23.7402 33.2437 23.6631 33.6382 23.6631C33.8413 23.6631 34.0347 23.6836 34.2183 23.7246C34.4038 23.7656 34.5943 23.8311 34.7896 23.9209L34.52 24.5654C34.3579 24.4951 34.2046 24.4375 34.0601 24.3926C33.9175 24.3477 33.772 24.3252 33.6236 24.3252C33.4927 24.3252 33.3941 24.3428 33.3277 24.3779C33.2612 24.4131 33.228 24.4668 33.228 24.5391C33.228 24.5918 33.2446 24.6387 33.2779 24.6797C33.313 24.7207 33.3794 24.7666 33.4771 24.8174C33.5767 24.8662 33.7222 24.9297 33.9136 25.0078C34.0991 25.084 34.2603 25.1641 34.397 25.248C34.5337 25.3301 34.6392 25.4326 34.7134 25.5557C34.7876 25.6768 34.8247 25.834 34.8247 26.0273Z" fill="#323A4D"/>
<path d="M36.6926 23.6631C36.9953 23.6631 37.2561 23.7217 37.4748 23.8389C37.6936 23.9541 37.8625 24.1221 37.9816 24.3428C38.1008 24.5635 38.1604 24.833 38.1604 25.1514V25.585H36.048C36.0578 25.8369 36.133 26.0352 36.2736 26.1797C36.4162 26.3223 36.6135 26.3936 36.8654 26.3936C37.0744 26.3936 37.2658 26.3721 37.4396 26.3291C37.6135 26.2861 37.7922 26.2217 37.9758 26.1357V26.8271C37.8137 26.9072 37.6437 26.9658 37.466 27.0029C37.2902 27.04 37.0764 27.0586 36.8244 27.0586C36.4963 27.0586 36.2053 26.998 35.9514 26.877C35.6994 26.7559 35.5012 26.5713 35.3566 26.3232C35.2141 26.0752 35.1428 25.7627 35.1428 25.3857C35.1428 25.0029 35.2072 24.6846 35.3361 24.4307C35.467 24.1748 35.6486 23.9834 35.8811 23.8564C36.1135 23.7275 36.384 23.6631 36.6926 23.6631ZM36.6984 24.2988C36.5246 24.2988 36.3801 24.3545 36.2648 24.4658C36.1516 24.5771 36.0861 24.752 36.0686 24.9902H37.3225C37.3205 24.8574 37.2961 24.7393 37.2492 24.6357C37.2043 24.5322 37.1359 24.4502 37.0441 24.3896C36.9543 24.3291 36.8391 24.2988 36.6984 24.2988Z" fill="#323A4D"/>
<path d="M14.3129 30.4111C14.1391 30.4111 13.9848 30.4453 13.85 30.5137C13.7172 30.5801 13.6049 30.6768 13.5131 30.8037C13.4233 30.9307 13.3549 31.084 13.308 31.2637C13.2612 31.4434 13.2377 31.6455 13.2377 31.8701C13.2377 32.1728 13.2748 32.4316 13.3491 32.6465C13.4252 32.8594 13.5424 33.0225 13.7006 33.1357C13.8588 33.2471 14.0629 33.3027 14.3129 33.3027C14.4868 33.3027 14.6606 33.2832 14.8344 33.2441C15.0102 33.2051 15.2006 33.1494 15.4057 33.0771V33.8389C15.2162 33.917 15.0297 33.9727 14.8461 34.0059C14.6625 34.041 14.4565 34.0586 14.228 34.0586C13.7866 34.0586 13.4233 33.9678 13.1381 33.7861C12.8549 33.6025 12.645 33.3467 12.5082 33.0186C12.3715 32.6885 12.3032 32.3037 12.3032 31.8643C12.3032 31.54 12.3471 31.2432 12.435 30.9736C12.5229 30.7041 12.6518 30.4707 12.8217 30.2734C12.9916 30.0762 13.2016 29.9238 13.4516 29.8164C13.7016 29.709 13.9887 29.6553 14.3129 29.6553C14.5258 29.6553 14.7387 29.6826 14.9516 29.7373C15.1664 29.79 15.3715 29.8633 15.5668 29.957L15.2739 30.6953C15.1137 30.6191 14.9526 30.5527 14.7905 30.4961C14.6284 30.4395 14.4692 30.4111 14.3129 30.4111Z" fill="#323A4D"/>
<path d="M19.046 32.3564C19.046 32.6299 19.0089 32.8721 18.9347 33.083C18.8624 33.2939 18.756 33.4727 18.6154 33.6191C18.4767 33.7637 18.3087 33.873 18.1114 33.9473C17.9161 34.0215 17.6954 34.0586 17.4493 34.0586C17.2189 34.0586 17.007 34.0215 16.8136 33.9473C16.6222 33.873 16.4552 33.7637 16.3126 33.6191C16.172 33.4727 16.0626 33.2939 15.9845 33.083C15.9083 32.8721 15.8702 32.6299 15.8702 32.3564C15.8702 31.9932 15.9347 31.6855 16.0636 31.4336C16.1925 31.1816 16.3761 30.9902 16.6144 30.8594C16.8527 30.7285 17.1368 30.6631 17.4669 30.6631C17.7736 30.6631 18.045 30.7285 18.2814 30.8594C18.5196 30.9902 18.7062 31.1816 18.8409 31.4336C18.9777 31.6855 19.046 31.9932 19.046 32.3564ZM16.7814 32.3564C16.7814 32.5713 16.8048 32.7519 16.8517 32.8984C16.8986 33.0449 16.9718 33.1553 17.0714 33.2295C17.171 33.3037 17.3009 33.3408 17.4611 33.3408C17.6193 33.3408 17.7472 33.3037 17.8448 33.2295C17.9445 33.1553 18.0167 33.0449 18.0616 32.8984C18.1085 32.7519 18.132 32.5713 18.132 32.3564C18.132 32.1396 18.1085 31.96 18.0616 31.8174C18.0167 31.6728 17.9445 31.5645 17.8448 31.4922C17.7452 31.4199 17.6154 31.3838 17.4552 31.3838C17.2189 31.3838 17.047 31.4648 16.9396 31.627C16.8341 31.7891 16.7814 32.0322 16.7814 32.3564Z" fill="#323A4D"/>
<path d="M23.451 30.6631C23.8221 30.6631 24.1023 30.7588 24.2918 30.9502C24.4832 31.1396 24.5789 31.4443 24.5789 31.8643V34H23.6824V32.0869C23.6824 31.8525 23.6424 31.6758 23.5623 31.5566C23.4822 31.4375 23.3582 31.3779 23.1902 31.3779C22.9539 31.3779 22.7859 31.4629 22.6863 31.6328C22.5867 31.8008 22.5369 32.042 22.5369 32.3564V34H21.6434V32.0869C21.6434 31.9307 21.6258 31.7998 21.5906 31.6943C21.5555 31.5889 21.5018 31.5098 21.4295 31.457C21.3572 31.4043 21.2645 31.3779 21.1512 31.3779C20.9852 31.3779 20.8543 31.4199 20.7586 31.5039C20.6648 31.5859 20.5975 31.708 20.5564 31.8701C20.5174 32.0303 20.4979 32.2266 20.4979 32.459V34H19.6043V30.7246H20.2869L20.407 31.1436H20.4568C20.5232 31.0303 20.6062 30.9385 20.7059 30.8682C20.8074 30.7978 20.9187 30.7461 21.0398 30.7129C21.1609 30.6797 21.284 30.6631 21.409 30.6631C21.6492 30.6631 21.8523 30.7021 22.0184 30.7803C22.1863 30.8584 22.3152 30.9795 22.4051 31.1436H22.4842C22.5818 30.9756 22.7195 30.8535 22.8973 30.7773C23.077 30.7012 23.2615 30.6631 23.451 30.6631Z" fill="#323A4D"/>
<path d="M27.1411 30.6631C27.5102 30.6631 27.8081 30.8066 28.0346 31.0937C28.2632 31.3809 28.3774 31.8018 28.3774 32.3564C28.3774 32.7275 28.3237 33.04 28.2163 33.2939C28.1089 33.5459 27.9604 33.7363 27.771 33.8652C27.5815 33.9941 27.3638 34.0586 27.1177 34.0586C26.9595 34.0586 26.8237 34.0391 26.7104 34C26.5971 33.959 26.5005 33.9072 26.4204 33.8447C26.3403 33.7803 26.271 33.7119 26.2124 33.6396H26.1655C26.1811 33.7178 26.1929 33.7978 26.2007 33.8799C26.2085 33.9619 26.2124 34.042 26.2124 34.1201V35.4414H25.3188V30.7246H26.0454L26.1714 31.1494H26.2124C26.271 31.0615 26.3423 30.9805 26.4263 30.9062C26.5102 30.832 26.6108 30.7734 26.728 30.7305C26.8471 30.6855 26.9848 30.6631 27.1411 30.6631ZM26.854 31.3779C26.6977 31.3779 26.5737 31.4102 26.4819 31.4746C26.3901 31.5391 26.3227 31.6357 26.2798 31.7646C26.2388 31.8936 26.2163 32.0566 26.2124 32.2539V32.3506C26.2124 32.5615 26.2319 32.7402 26.271 32.8867C26.312 33.0332 26.3794 33.1445 26.4731 33.2207C26.5688 33.2969 26.6997 33.335 26.8657 33.335C27.0024 33.335 27.1147 33.2969 27.2026 33.2207C27.2905 33.1445 27.3559 33.0332 27.3989 32.8867C27.4438 32.7383 27.4663 32.5576 27.4663 32.3447C27.4663 32.0244 27.4165 31.7832 27.3169 31.6211C27.2173 31.459 27.063 31.3779 26.854 31.3779Z" fill="#323A4D"/>
<path d="M29.8293 34H28.9357V29.4414H29.8293V34Z" fill="#323A4D"/>
<path d="M31.9403 30.6631C32.243 30.6631 32.5037 30.7217 32.7225 30.8389C32.9412 30.9541 33.1102 31.1221 33.2293 31.3428C33.3485 31.5635 33.408 31.833 33.408 32.1514V32.585H31.2957C31.3055 32.8369 31.3807 33.0352 31.5213 33.1797C31.6639 33.3223 31.8612 33.3936 32.1131 33.3936C32.3221 33.3936 32.5135 33.3721 32.6873 33.3291C32.8612 33.2861 33.0399 33.2217 33.2235 33.1357V33.8271C33.0614 33.9072 32.8914 33.9658 32.7137 34.0029C32.5379 34.04 32.3241 34.0586 32.0721 34.0586C31.744 34.0586 31.453 33.998 31.1991 33.8769C30.9471 33.7559 30.7489 33.5713 30.6043 33.3232C30.4618 33.0752 30.3905 32.7627 30.3905 32.3857C30.3905 32.0029 30.4549 31.6846 30.5838 31.4307C30.7147 31.1748 30.8963 30.9834 31.1287 30.8564C31.3612 30.7275 31.6317 30.6631 31.9403 30.6631ZM31.9461 31.2988C31.7723 31.2988 31.6278 31.3545 31.5125 31.4658C31.3993 31.5771 31.3338 31.752 31.3162 31.9902H32.5702C32.5682 31.8574 32.5438 31.7393 32.4969 31.6357C32.452 31.5322 32.3836 31.4502 32.2918 31.3896C32.202 31.3291 32.0868 31.2988 31.9461 31.2988Z" fill="#323A4D"/>
<path d="M35.3345 33.3467C35.4321 33.3467 35.5269 33.3369 35.6187 33.3174C35.7124 33.2978 35.8052 33.2734 35.897 33.2441V33.9092C35.8013 33.9521 35.6821 33.9873 35.5396 34.0146C35.3989 34.0439 35.2446 34.0586 35.0767 34.0586C34.8814 34.0586 34.7056 34.0273 34.5493 33.9648C34.395 33.9004 34.273 33.79 34.1831 33.6338C34.0952 33.4756 34.0513 33.2559 34.0513 32.9746V31.3955H33.6236V31.0176L34.1157 30.7187L34.3736 30.0273H34.9448V30.7246H35.8618V31.3955H34.9448V32.9746C34.9448 33.0996 34.98 33.1934 35.0503 33.2559C35.1226 33.3164 35.2173 33.3467 35.3345 33.3467Z" fill="#323A4D"/>
<path d="M37.2756 30.7246V34H36.382V30.7246H37.2756ZM36.8303 29.4414C36.9631 29.4414 37.0773 29.4727 37.173 29.5352C37.2687 29.5957 37.3166 29.71 37.3166 29.8779C37.3166 30.0439 37.2687 30.1592 37.173 30.2236C37.0773 30.2861 36.9631 30.3174 36.8303 30.3174C36.6955 30.3174 36.5803 30.2861 36.4846 30.2236C36.3908 30.1592 36.3439 30.0439 36.3439 29.8779C36.3439 29.71 36.3908 29.5957 36.4846 29.5352C36.5803 29.4727 36.6955 29.4414 36.8303 29.4414Z" fill="#323A4D"/>
<path d="M41.0126 32.3564C41.0126 32.6299 40.9755 32.8721 40.9012 33.083C40.829 33.2939 40.7225 33.4727 40.5819 33.6191C40.4432 33.7637 40.2753 33.873 40.078 33.9473C39.8827 34.0215 39.662 34.0586 39.4159 34.0586C39.1854 34.0586 38.9735 34.0215 38.7802 33.9473C38.5887 33.873 38.4218 33.7637 38.2792 33.6191C38.1386 33.4727 38.0292 33.2939 37.9511 33.083C37.8749 32.8721 37.8368 32.6299 37.8368 32.3564C37.8368 31.9932 37.9012 31.6855 38.0302 31.4336C38.1591 31.1816 38.3427 30.9902 38.5809 30.8594C38.8192 30.7285 39.1034 30.6631 39.4335 30.6631C39.7401 30.6631 40.0116 30.7285 40.2479 30.8594C40.4862 30.9902 40.6727 31.1816 40.8075 31.4336C40.9442 31.6855 41.0126 31.9932 41.0126 32.3564ZM38.7479 32.3564C38.7479 32.5713 38.7714 32.7519 38.8182 32.8984C38.8651 33.0449 38.9384 33.1553 39.038 33.2295C39.1376 33.3037 39.2675 33.3408 39.4276 33.3408C39.5858 33.3408 39.7137 33.3037 39.8114 33.2295C39.911 33.1553 39.9833 33.0449 40.0282 32.8984C40.0751 32.7519 40.0985 32.5713 40.0985 32.3564C40.0985 32.1396 40.0751 31.96 40.0282 31.8174C39.9833 31.6728 39.911 31.5645 39.8114 31.4922C39.7118 31.4199 39.5819 31.3838 39.4218 31.3838C39.1854 31.3838 39.0136 31.4648 38.9061 31.627C38.8007 31.7891 38.7479 32.0322 38.7479 32.3564Z" fill="#323A4D"/>
<path d="M43.4312 30.6631C43.7808 30.6631 44.0621 30.7588 44.275 30.9502C44.4879 31.1396 44.5943 31.4443 44.5943 31.8643V34H43.7007V32.0869C43.7007 31.8525 43.6578 31.6758 43.5718 31.5566C43.4879 31.4375 43.355 31.3779 43.1734 31.3779C42.9 31.3779 42.7134 31.4707 42.6138 31.6562C42.5142 31.8418 42.4644 32.1094 42.4644 32.459V34H41.5709V30.7246H42.2535L42.3736 31.1436H42.4234C42.4937 31.0303 42.5806 30.9385 42.6841 30.8682C42.7896 30.7978 42.9058 30.7461 43.0328 30.7129C43.1617 30.6797 43.2945 30.6631 43.4312 30.6631Z" fill="#323A4D"/>
<defs>
<linearGradient id="paint0_linear_1318_2380" x1="53.2137" y1="28.7392" x2="20.0795" y2="37.4068" gradientUnits="userSpaceOnUse">
<stop stop-color="#DEE2ED"/>
<stop offset="0.110945" stop-color="#B37F34"/>
<stop offset="0.649887" stop-color="#D1A24E"/>
<stop offset="1" stop-color="#D1A24E"/>
</linearGradient>
<linearGradient id="paint1_linear_1318_2380" x1="34.4042" y1="48.1357" x2="17.3695" y2="27.7859" gradientUnits="userSpaceOnUse">
<stop stop-color="#DEE2ED"/>
<stop offset="0.110945" stop-color="#DEE2ED"/>
<stop offset="0.649887" stop-color="#FBFCFE"/>
<stop offset="1" stop-color="#FBFCFE"/>
</linearGradient>
<linearGradient id="paint2_linear_1318_2380" x1="3.66558" y1="28.7392" x2="36.7991" y2="37.4064" gradientUnits="userSpaceOnUse">
<stop stop-color="#9B6220"/>
<stop offset="0.110945" stop-color="#BD8A3D"/>
<stop offset="0.649887" stop-color="#CB9B49"/>
<stop offset="1" stop-color="#CD9D4A"/>
</linearGradient>
<linearGradient id="paint3_linear_1318_2380" x1="22.8619" y1="49.0152" x2="37.5002" y2="28.834" gradientUnits="userSpaceOnUse">
<stop stop-color="#DEE2ED"/>
<stop offset="0.110945" stop-color="#DEDCD9"/>
<stop offset="0.649887" stop-color="#FBFCFE"/>
<stop offset="1" stop-color="#FBFCFE"/>
</linearGradient>
<linearGradient id="paint4_linear_1318_2380" x1="28.4391" y1="92.5529" x2="28.4391" y2="-2.61057" gradientUnits="userSpaceOnUse">
<stop stop-color="#B17A3E"/>
<stop offset="0.192458" stop-color="#B17A3E"/>
<stop offset="0.402404" stop-color="#FFE3B8"/>
<stop offset="0.614201" stop-color="#F0CD86"/>
<stop offset="0.807016" stop-color="#B17A3E"/>
<stop offset="1" stop-color="#B17A3E"/>
</linearGradient>
<linearGradient id="paint5_linear_1318_2380" x1="28.4396" y1="92.5528" x2="28.4396" y2="-2.61003" gradientUnits="userSpaceOnUse">
<stop stop-color="#9B6220"/>
<stop offset="0.192458" stop-color="#9B6220"/>
<stop offset="0.402404" stop-color="#F9D190"/>
<stop offset="0.614201" stop-color="#E7BC60"/>
<stop offset="0.807016" stop-color="#9B6220"/>
<stop offset="1" stop-color="#9B6220"/>
</linearGradient>
<linearGradient id="paint6_linear_1318_2380" x1="28.4396" y1="113.962" x2="28.4396" y2="-22.8457" gradientUnits="userSpaceOnUse">
<stop stop-color="#B17A3E"/>
<stop offset="0.192458" stop-color="#B17A3E"/>
<stop offset="0.402404" stop-color="#FFE3B8"/>
<stop offset="0.614201" stop-color="#F0CD86"/>
<stop offset="0.807016" stop-color="#B17A3E"/>
<stop offset="1" stop-color="#B17A3E"/>
</linearGradient>
<linearGradient id="paint7_linear_1318_2380" x1="28.4396" y1="113.962" x2="28.4396" y2="-22.8454" gradientUnits="userSpaceOnUse">
<stop stop-color="#9B6220"/>
<stop offset="0.192458" stop-color="#9B6220"/>
<stop offset="0.402404" stop-color="#F9D190"/>
<stop offset="0.614201" stop-color="#E7BC60"/>
<stop offset="0.807016" stop-color="#9B6220"/>
<stop offset="1" stop-color="#9B6220"/>
</linearGradient>
<linearGradient id="paint8_linear_1318_2380" x1="65.4287" y1="37" x2="-7.10999" y2="37" gradientUnits="userSpaceOnUse">
<stop stop-color="#9B6220"/>
<stop offset="0.192458" stop-color="#9B6220"/>
<stop offset="0.402404" stop-color="#F9D190"/>
<stop offset="0.614201" stop-color="#E7BC60"/>
<stop offset="0.807016" stop-color="#9B6220"/>
<stop offset="1" stop-color="#9B6220"/>
</linearGradient>
<linearGradient id="paint9_linear_1318_2380" x1="28.4397" y1="1.58437" x2="28.4397" y2="78.4349" gradientUnits="userSpaceOnUse">
<stop stop-color="white"/>
<stop offset="0.215808" stop-color="white"/>
<stop offset="0.994647" stop-color="#F2DDBE"/>
<stop offset="0.998808" stop-color="#F2DDBE"/>
<stop offset="1" stop-color="#F2DDBE"/>
</linearGradient>
<linearGradient id="paint10_linear_1318_2380" x1="29.2146" y1="78.7091" x2="26.8232" y2="2.73132" gradientUnits="userSpaceOnUse">
<stop stop-color="white"/>
<stop offset="0.215808" stop-color="white"/>
<stop offset="0.994647" stop-color="#F8EDDC"/>
<stop offset="0.998808" stop-color="#F8EDDC"/>
<stop offset="1" stop-color="#F8EDDC"/>
</linearGradient>
<linearGradient id="paint11_linear_1318_2380" x1="29.2147" y1="78.7091" x2="26.8232" y2="2.73122" gradientUnits="userSpaceOnUse">
<stop stop-color="white"/>
<stop offset="0.215808" stop-color="white"/>
<stop offset="0.994647" stop-color="#F2DDBE"/>
<stop offset="0.998808" stop-color="#F2DDBE"/>
<stop offset="1" stop-color="#F2DDBE"/>
</linearGradient>
<linearGradient id="paint12_linear_1318_2380" x1="29.1173" y1="73.9899" x2="26.7884" y2="0.00758692" gradientUnits="userSpaceOnUse">
<stop stop-color="#9B6220"/>
<stop offset="0.192458" stop-color="#9B6220"/>
<stop offset="0.402404" stop-color="#F9D190"/>
<stop offset="0.614201" stop-color="#E7BC60"/>
<stop offset="0.807016" stop-color="#9B6220"/>
<stop offset="1" stop-color="#9B6220"/>
</linearGradient>
<linearGradient id="paint13_linear_1318_2380" x1="29.0351" y1="121.444" x2="26.1308" y2="-75.9812" gradientUnits="userSpaceOnUse">
<stop stop-color="#9B6220"/>
<stop offset="0.192458" stop-color="#9B6220"/>
<stop offset="0.402404" stop-color="#F9D190"/>
<stop offset="0.614201" stop-color="#E7BC60"/>
<stop offset="0.807016" stop-color="#9B6220"/>
<stop offset="1" stop-color="#9B6220"/>
</linearGradient>
<linearGradient id="paint14_linear_1318_2380" x1="29.0305" y1="121.452" x2="26.1256" y2="-76.0063" gradientUnits="userSpaceOnUse">
<stop stop-color="#9B6220"/>
<stop offset="0.192458" stop-color="#9B6220"/>
<stop offset="0.402404" stop-color="#F9D190"/>
<stop offset="0.614201" stop-color="#E7BC60"/>
<stop offset="0.807016" stop-color="#9B6220"/>
<stop offset="1" stop-color="#9B6220"/>
</linearGradient>
<linearGradient id="paint15_linear_1318_2380" x1="29.0359" y1="121.452" x2="26.1304" y2="-76.0063" gradientUnits="userSpaceOnUse">
<stop stop-color="#9B6220"/>
<stop offset="0.192458" stop-color="#9B6220"/>
<stop offset="0.402404" stop-color="#F9D190"/>
<stop offset="0.614201" stop-color="#E7BC60"/>
<stop offset="0.807016" stop-color="#9B6220"/>
<stop offset="1" stop-color="#9B6220"/>
</linearGradient>
<linearGradient id="paint16_linear_1318_2380" x1="29.0355" y1="121.447" x2="26.1309" y2="-75.9909" gradientUnits="userSpaceOnUse">
<stop stop-color="#9B6220"/>
<stop offset="0.192458" stop-color="#9B6220"/>
<stop offset="0.402404" stop-color="#F9D190"/>
<stop offset="0.614201" stop-color="#E7BC60"/>
<stop offset="0.807016" stop-color="#9B6220"/>
<stop offset="1" stop-color="#9B6220"/>
</linearGradient>
<linearGradient id="paint17_linear_1318_2380" x1="29.0305" y1="121.452" x2="26.1256" y2="-76.0063" gradientUnits="userSpaceOnUse">
<stop stop-color="#9B6220"/>
<stop offset="0.192458" stop-color="#9B6220"/>
<stop offset="0.402404" stop-color="#F9D190"/>
<stop offset="0.614201" stop-color="#E7BC60"/>
<stop offset="0.807016" stop-color="#9B6220"/>
<stop offset="1" stop-color="#9B6220"/>
</linearGradient>
<linearGradient id="paint18_linear_1318_2380" x1="29.0359" y1="121.452" x2="26.1304" y2="-76.0063" gradientUnits="userSpaceOnUse">
<stop stop-color="#9B6220"/>
<stop offset="0.192458" stop-color="#9B6220"/>
<stop offset="0.402404" stop-color="#F9D190"/>
<stop offset="0.614201" stop-color="#E7BC60"/>
<stop offset="0.807016" stop-color="#9B6220"/>
<stop offset="1" stop-color="#9B6220"/>
</linearGradient>
</defs>
</svg>
