<svg width="29" height="28" viewBox="0 0 29 28" fill="none" xmlns="http://www.w3.org/2000/svg">
<path d="M13.4676 1.68886C13.841 0.53975 15.4666 0.53975 15.84 1.68886L18.2941 9.24188C18.4611 9.75578 18.94 10.1037 19.4803 10.1037H27.4221C28.6303 10.1037 29.1327 11.6498 28.1552 12.36L21.7302 17.028C21.293 17.3456 21.1101 17.9086 21.2771 18.4225L23.7312 25.9755C24.1046 27.1246 22.7894 28.0802 21.8119 27.37L15.3869 22.702C14.9498 22.3844 14.3578 22.3844 13.9207 22.702L7.4957 27.37C6.51821 28.0802 5.203 27.1246 5.57637 25.9755L8.0305 18.4225C8.19747 17.9086 8.01455 17.3456 7.57741 17.028L1.15242 12.36C0.174931 11.6498 0.677294 10.1037 1.88554 10.1037H9.82726C10.3676 10.1037 10.8465 9.75578 11.0135 9.24188L13.4676 1.68886Z" fill="#F7871B"/>
</svg>
