<svg width="17" height="17" viewBox="0 0 17 17" fill="none" xmlns="http://www.w3.org/2000/svg">
<path d="M7.72492 1.12908C7.94266 0.458938 8.89073 0.458937 9.10848 1.12908L10.5397 5.5339C10.6371 5.8336 10.9163 6.03651 11.2315 6.03651H15.863C16.5676 6.03651 16.8606 6.93818 16.2905 7.35235L12.5436 10.0747C12.2886 10.2599 12.1819 10.5882 12.2793 10.8879L13.7105 15.2927C13.9283 15.9629 13.1613 16.5201 12.5912 16.106L8.84424 13.3836C8.5893 13.1984 8.24409 13.1984 7.98915 13.3836L4.24219 16.106C3.67213 16.5201 2.90512 15.9629 3.12287 15.2927L4.55408 10.8879C4.65146 10.5882 4.54478 10.2599 4.28984 10.0747L0.54288 7.35235C-0.0271782 6.93818 0.265793 6.03651 0.970423 6.03651H5.60192C5.91705 6.03651 6.19633 5.8336 6.2937 5.5339L7.72492 1.12908Z" fill="#E35D33"/>
</svg>
