<svg width="17" height="17" viewBox="0 0 17 17" fill="none" xmlns="http://www.w3.org/2000/svg">
<path d="M7.6583 1.12908C7.87604 0.458938 8.82412 0.458937 9.04186 1.12908L10.4731 5.5339C10.5704 5.8336 10.8497 6.03651 11.1649 6.03651H15.7964C16.501 6.03651 16.794 6.93818 16.2239 7.35235L12.4769 10.0747C12.222 10.2599 12.1153 10.5882 12.2127 10.8879L13.6439 15.2927C13.8617 15.9629 13.0946 16.5201 12.5246 16.106L8.77762 13.3836C8.52268 13.1984 8.17747 13.1984 7.92253 13.3836L4.17557 16.106C3.60551 16.5201 2.8385 15.9629 3.05625 15.2927L4.48746 10.8879C4.58484 10.5882 4.47816 10.2599 4.22322 10.0747L0.47626 7.35235C-0.0937981 6.93818 0.199173 6.03651 0.903803 6.03651H5.5353C5.85043 6.03651 6.12971 5.8336 6.22709 5.5339L7.6583 1.12908Z" fill="#E35D34"/>
</svg>
