<svg width="29" height="29" viewBox="0 0 29 29" fill="none" xmlns="http://www.w3.org/2000/svg">
<path d="M14.6343 0.232422C6.90227 0.232422 0.634796 6.50108 0.634796 14.2319C0.634796 21.964 6.90227 28.2315 14.6343 28.2315C22.3652 28.2315 28.6338 21.9628 28.6338 14.2319C28.6338 6.50108 22.3652 0.232422 14.6343 0.232422ZM11.2047 17.9912C11.2047 18.7478 10.5916 19.3598 9.83618 19.3598C9.07957 19.3598 8.46765 18.7478 8.46765 17.9912V12.1566C8.46765 11.4 9.07957 10.7869 9.83618 10.7869C10.5916 10.7869 11.2047 11.4 11.2047 12.1566V17.9912ZM20.8721 17.8928C20.8721 18.9625 20.2472 19.3455 19.1775 19.3455H14.256C13.1863 19.3455 12.3194 18.4786 12.3194 17.409V12.5681C12.3194 12.5681 12.2234 11.7629 13.1152 11.0063C13.6192 10.5782 14.3675 9.76111 14.8905 8.7697C15.9293 6.79992 16.5507 6.22595 17.0239 6.38012C18.7767 6.94816 17.9003 9.54646 17.3346 10.6316H18.9356C20.0041 10.6316 20.8721 11.4984 20.8721 12.5681V17.8928Z" fill="white"/>
</svg>
