<svg width="21" height="20" viewBox="0 0 21 20" fill="none" xmlns="http://www.w3.org/2000/svg">
<path fill-rule="evenodd" clip-rule="evenodd" d="M2.5 10C2.5 12.1217 3.34285 14.1566 4.84315 15.6569C6.34344 17.1571 8.37827 18 10.5 18C12.6217 18 14.6566 17.1571 16.1569 15.6569C17.6571 14.1566 18.5 12.1217 18.5 10C18.5 7.87827 17.6571 5.84344 16.1569 4.34315C14.6566 2.84285 12.6217 2 10.5 2C8.37827 2 6.34344 2.84285 4.84315 4.34315C3.34285 5.84344 2.5 7.87827 2.5 10ZM10.5 0C4.977 0 0.5 4.477 0.5 10C0.5 15.523 4.977 20 10.5 20C16.023 20 20.5 15.523 20.5 10C20.5 4.477 16.023 0 10.5 0ZM10.5 9C10.7652 9 11.0196 9.10536 11.2071 9.29289C11.3946 9.48043 11.5 9.73478 11.5 10V14C11.5 14.2652 11.3946 14.5196 11.2071 14.7071C11.0196 14.8946 10.7652 15 10.5 15C10.2348 15 9.98043 14.8946 9.79289 14.7071C9.60536 14.5196 9.5 14.2652 9.5 14V10C9.5 9.73478 9.60536 9.48043 9.79289 9.29289C9.98043 9.10536 10.2348 9 10.5 9ZM11.5 6C11.5 5.73478 11.3946 5.48043 11.2071 5.29289C11.0196 5.10536 10.7652 5 10.5 5C10.2348 5 9.98043 5.10536 9.79289 5.29289C9.60536 5.48043 9.5 5.73478 9.5 6V6.5C9.5 6.76522 9.60536 7.01957 9.79289 7.20711C9.98043 7.39464 10.2348 7.5 10.5 7.5C10.7652 7.5 11.0196 7.39464 11.2071 7.20711C11.3946 7.01957 11.5 6.76522 11.5 6.5V6Z" fill="#121117"/>
</svg>
