<svg width="25" height="24" viewBox="0 0 25 24" fill="none" xmlns="http://www.w3.org/2000/svg">
<path fill-rule="evenodd" clip-rule="evenodd" d="M12.9878 17.9673C12.7594 17.9885 12.5302 17.9995 12.3008 18.0003C10.4741 17.9982 8.72051 17.2821 7.41451 16.0048C6.10852 14.7276 5.35354 12.9905 5.31075 11.1642C5.26796 9.338 5.94076 7.56739 7.18551 6.2304C8.43027 4.89342 10.1483 4.09598 11.973 4.00833C13.7976 3.92069 15.5842 4.54978 16.9514 5.7613C18.3185 6.97283 19.158 8.67079 19.2904 10.4927C19.4229 12.3146 18.8379 14.1162 17.6603 15.5127C16.4827 16.9092 14.8059 17.7901 12.9878 17.9673ZM3.30078 11.0003C3.30078 14.1203 4.88878 16.8703 7.30078 18.4853V23.0003L12.3008 21.0003L17.3008 23.0003V18.4853C18.5936 17.6215 19.6405 16.4375 20.3396 15.0488C21.0388 13.66 21.3662 12.1138 21.29 10.5609C21.2138 9.00795 20.7366 7.50124 19.9049 6.18759C19.0731 4.87394 17.9153 3.79817 16.5442 3.0651C15.173 2.33203 13.6354 1.96667 12.081 2.00464C10.5267 2.0426 9.00869 2.48259 7.67497 3.28173C6.34126 4.08086 5.23732 5.21188 4.47074 6.56457C3.70415 7.91726 3.30107 9.44547 3.30078 11.0003ZM13.5348 9.30127L12.3008 6.00027L11.0668 9.30127L7.54578 9.45527L10.3038 11.6493L9.36178 15.0453L12.3008 13.1003L15.2398 15.0453L14.2978 11.6493L17.0558 9.45527L13.5348 9.30127Z" fill="#E35D33"/>
</svg>
