<svg width="24" height="24" viewBox="0 0 24 24" fill="none" xmlns="http://www.w3.org/2000/svg">
<path opacity="0.4" d="M16.19 2H7.81C4.17 2 2 4.17 2 7.81V16.18C2 19.83 4.17 22 7.81 22H16.18C19.82 22 21.99 19.83 21.99 16.19V7.81C22 4.17 19.83 2 16.19 2Z" fill="#8D8D8D"/>
<path d="M15.8899 8.11001C14.4099 6.64001 12.0099 6.64001 10.5399 8.11001C9.50995 9.13001 9.19995 10.61 9.59995 11.91L7.24995 14.26C7.08995 14.43 6.96995 14.76 7.00995 15L7.15995 16.09C7.20995 16.45 7.54995 16.79 7.90995 16.84L8.99995 17C9.23995 17.03 9.56995 16.93 9.73995 16.75L10.1499 16.34C10.2499 16.25 10.2499 16.09 10.1499 15.99L9.17995 15.02C9.03995 14.88 9.03995 14.64 9.17995 14.49C9.31995 14.35 9.55995 14.35 9.70995 14.49L10.6799 15.46C10.7699 15.55 10.9299 15.55 11.0299 15.46L12.0899 14.41C13.3799 14.81 14.86 14.5 15.8899 13.48C17.3699 11.99 17.3699 9.59001 15.8899 8.11001ZM13.2499 12C12.5599 12 11.9999 11.44 11.9999 10.75C11.9999 10.06 12.5599 9.50001 13.2499 9.50001C13.9399 9.50001 14.4999 10.06 14.4999 10.75C14.4999 11.44 13.9399 12 13.2499 12Z" fill="#8D8D8D"/>
</svg>
