<svg width="50" height="50" viewBox="0 0 50 50" fill="none" xmlns="http://www.w3.org/2000/svg">
<rect width="50" height="50" rx="25" fill="#FF5F5F" fill-opacity="0.1"/>
<path d="M24.44 36.935C23.38 36.935 22.41 36.755 21.53 36.395C20.65 36.025 19.895 35.5 19.265 34.82C18.635 34.13 18.17 33.31 17.87 32.36L19.505 31.835C19.905 32.975 20.545 33.835 21.425 34.415C22.305 34.995 23.305 35.275 24.425 35.255C25.465 35.225 26.35 34.99 27.08 34.55C27.82 34.11 28.385 33.5 28.775 32.72C29.165 31.94 29.36 31.02 29.36 29.96C29.36 28.36 28.905 27.085 27.995 26.135C27.085 25.175 25.875 24.695 24.365 24.695C23.965 24.695 23.53 24.755 23.06 24.875C22.59 24.985 22.16 25.135 21.77 25.325L20.84 23.945L29.6 15.665L29.975 16.595H18.74V14.9H30.965V16.61L23.15 24.08L23.12 23.255C24.67 22.975 26.05 23.085 27.26 23.585C28.48 24.075 29.435 24.875 30.125 25.985C30.825 27.095 31.175 28.42 31.175 29.96C31.175 31.36 30.885 32.585 30.305 33.635C29.735 34.675 28.945 35.485 27.935 36.065C26.925 36.645 25.76 36.935 24.44 36.935Z" fill="#FF5F5F"/>
</svg>
