<svg width="50" height="51" viewBox="0 0 50 51" fill="none" xmlns="http://www.w3.org/2000/svg">
<rect y="0.5" width="50" height="50" rx="25" fill="#FF5F5F" fill-opacity="0.1"/>
<path d="M18.17 37L18.2 35.35L28.13 26.335C29.01 25.545 29.585 24.79 29.855 24.07C30.125 23.34 30.26 22.56 30.26 21.73C30.26 20.79 30.035 19.935 29.585 19.165C29.135 18.395 28.525 17.785 27.755 17.335C26.995 16.875 26.14 16.645 25.19 16.645C24.22 16.645 23.35 16.88 22.58 17.35C21.81 17.82 21.2 18.44 20.75 19.21C20.31 19.98 20.09 20.82 20.09 21.73H18.35C18.35 20.46 18.655 19.315 19.265 18.295C19.875 17.265 20.695 16.45 21.725 15.85C22.765 15.25 23.925 14.95 25.205 14.95C26.495 14.95 27.65 15.26 28.67 15.88C29.7 16.49 30.515 17.31 31.115 18.34C31.715 19.37 32.015 20.505 32.015 21.745C32.015 22.605 31.915 23.375 31.715 24.055C31.525 24.725 31.22 25.355 30.8 25.945C30.38 26.525 29.84 27.11 29.18 27.7L19.805 36.205L19.445 35.305H32.015V37H18.17Z" fill="#FF5F5F"/>
</svg>
